solid OBJECT
  facet normal 0 0.98228797969137238 0.18737749318912889
    outer loop
      vertex 155.13099670410156 161.37409973144531 0.49114513397216797
      vertex 155.13099670410156 161.46778869628906 2.6645352591003757e-15
      vertex 135.13099670410156 161.46778869628906 2.6645352591003757e-15
    endloop
  endfacet
  facet normal 0 0.98228797969137238 0.18737749318912889
    outer loop
      vertex 155.13099670410156 161.37409973144531 0.49114513397216797
      vertex 135.13099670410156 161.46778869628906 2.6645352591003757e-15
      vertex 135.13099670410156 161.37409973144531 0.49114513397216797
    endloop
  endfacet
  facet normal -0 0 -1
    outer loop
      vertex 155.13099670410156 161.46778869628906 2.6645352591003757e-15
      vertex 155.13099670410156 161.08041381835938 2.6645352591003757e-15
      vertex 135.13099670410156 161.08041381835938 2.6645352591003757e-15
    endloop
  endfacet
  facet normal 0 -0 -1
    outer loop
      vertex 155.13099670410156 161.46778869628906 2.6645352591003757e-15
      vertex 135.13099670410156 161.08041381835938 2.6645352591003757e-15
      vertex 135.13099670410156 161.46778869628906 2.6645352591003757e-15
    endloop
  endfacet
  facet normal -0 -0.98228797969137238 0.18737749318912889
    outer loop
      vertex 155.13099670410156 161.08041381835938 2.6645352591003757e-15
      vertex 155.13099670410156 161.17410278320312 0.49114513397216797
      vertex 135.13099670410156 161.17410278320312 0.49114513397216797
    endloop
  endfacet
  facet normal 0 -0.98228797969137238 0.18737749318912889
    outer loop
      vertex 155.13099670410156 161.08041381835938 2.6645352591003757e-15
      vertex 135.13099670410156 161.17410278320312 0.49114513397216797
      vertex 135.13099670410156 161.08041381835938 2.6645352591003757e-15
    endloop
  endfacet
  facet normal 0 0 1
    outer loop
      vertex 155.13099670410156 161.17410278320312 0.49114513397216797
      vertex 155.13099670410156 161.37409973144531 0.49114513397216797
      vertex 135.13099670410156 161.37409973144531 0.49114513397216797
    endloop
  endfacet
  facet normal 0 -0 1
    outer loop
      vertex 155.13099670410156 161.17410278320312 0.49114513397216797
      vertex 135.13099670410156 161.37409973144531 0.49114513397216797
      vertex 135.13099670410156 161.17410278320312 0.49114513397216797
    endloop
  endfacet
  facet normal 1 -0 0
    outer loop
      vertex 155.13099670410156 161.37409973144531 0.49114513397216797
      vertex 155.13099670410156 161.17410278320312 0.49114513397216797
      vertex 155.13099670410156 161.08041381835938 2.6645352591003757e-15
    endloop
  endfacet
  facet normal 1 0 0
    outer loop
      vertex 155.13099670410156 161.08041381835938 2.6645352591003757e-15
      vertex 155.13099670410156 161.46778869628906 2.6645352591003757e-15
      vertex 155.13099670410156 161.37409973144531 0.49114513397216797
    endloop
  endfacet
  facet normal -1 0 -0
    outer loop
      vertex 135.13099670410156 161.37409973144531 0.49114513397216797
      vertex 135.13099670410156 161.08041381835938 2.6645352591003757e-15
      vertex 135.13099670410156 161.17410278320312 0.49114513397216797
    endloop
  endfacet
  facet normal -1 -0 0
    outer loop
      vertex 135.13099670410156 161.08041381835938 2.6645352591003757e-15
      vertex 135.13099670410156 161.37409973144531 0.49114513397216797
      vertex 135.13099670410156 161.46778869628906 2.6645352591003757e-15
    endloop
  endfacet
  facet normal 0 0.97922227738351297 0.202789870249592
    outer loop
      vertex 155.13099670410156 160.77902221679688 0.48960977792739868
      vertex 155.13099670410156 160.88041687011719 2.6645352591003757e-15
      vertex 135.13099670410156 160.88041687011719 2.6645352591003757e-15
    endloop
  endfacet
  facet normal -0 0.97922227738351297 0.202789870249592
    outer loop
      vertex 155.13099670410156 160.77902221679688 0.48960977792739868
      vertex 135.13099670410156 160.88041687011719 2.6645352591003757e-15
      vertex 135.13099670410156 160.77902221679688 0.48960977792739868
    endloop
  endfacet
  facet normal -0 8.6890407089689539e-14 -1
    outer loop
      vertex 155.13099670410156 160.88041687011719 2.6645352591003757e-15
      vertex 155.13099670410156 160.48176574707031 -3.1974423109204508e-14
      vertex 135.13099670410156 160.48176574707031 -3.1974423109204508e-14
    endloop
  endfacet
  facet normal 0 8.6890407089689539e-14 -1
    outer loop
      vertex 155.13099670410156 160.88041687011719 2.6645352591003757e-15
      vertex 135.13099670410156 160.48176574707031 -3.1974423109204508e-14
      vertex 135.13099670410156 160.88041687011719 2.6645352591003757e-15
    endloop
  endfacet
  facet normal -0 -0.97921621689741178 0.20281913264068771
    outer loop
      vertex 155.13099670410156 160.48176574707031 -3.1974423109204508e-14
      vertex 155.13099670410156 160.58317565917969 0.48960977792739868
      vertex 135.13099670410156 160.58317565917969 0.48960977792739868
    endloop
  endfacet
  facet normal 0 -0.97921621689741178 0.20281913264068771
    outer loop
      vertex 155.13099670410156 160.48176574707031 -3.1974423109204508e-14
      vertex 135.13099670410156 160.58317565917969 0.48960977792739868
      vertex 135.13099670410156 160.48176574707031 -3.1974423109204508e-14
    endloop
  endfacet
  facet normal 0 0 1
    outer loop
      vertex 155.13099670410156 160.58317565917969 0.48960977792739868
      vertex 155.13099670410156 160.77902221679688 0.48960977792739868
      vertex 135.13099670410156 160.77902221679688 0.48960977792739868
    endloop
  endfacet
  facet normal 0 -0 1
    outer loop
      vertex 155.13099670410156 160.58317565917969 0.48960977792739868
      vertex 135.13099670410156 160.77902221679688 0.48960977792739868
      vertex 135.13099670410156 160.58317565917969 0.48960977792739868
    endloop
  endfacet
  facet normal 1 0 0
    outer loop
      vertex 155.13099670410156 160.58317565917969 0.48960977792739868
      vertex 155.13099670410156 160.48176574707031 -3.1974423109204508e-14
      vertex 155.13099670410156 160.88041687011719 2.6645352591003757e-15
    endloop
  endfacet
  facet normal 1 -0 -0
    outer loop
      vertex 155.13099670410156 160.88041687011719 2.6645352591003757e-15
      vertex 155.13099670410156 160.77902221679688 0.48960977792739868
      vertex 155.13099670410156 160.58317565917969 0.48960977792739868
    endloop
  endfacet
  facet normal -1 0 0
    outer loop
      vertex 135.13099670410156 160.58317565917969 0.48960977792739868
      vertex 135.13099670410156 160.88041687011719 2.6645352591003757e-15
      vertex 135.13099670410156 160.48176574707031 -3.1974423109204508e-14
    endloop
  endfacet
  facet normal -1 -0 0
    outer loop
      vertex 135.13099670410156 160.88041687011719 2.6645352591003757e-15
      vertex 135.13099670410156 160.58317565917969 0.48960977792739868
      vertex 135.13099670410156 160.77902221679688 0.48960977792739868
    endloop
  endfacet
  facet normal 0 0.99556409042905802 0.094085821716995671
    outer loop
      vertex 155.13099670410156 160.23472595214844 0.49778136610984802
      vertex 155.13099670410156 160.28176879882812 -3.1974423109204508e-14
      vertex 135.13099670410156 160.28176879882812 -3.1974423109204508e-14
    endloop
  endfacet
  facet normal -0 0.99556409042905802 0.094085821716995671
    outer loop
      vertex 155.13099670410156 160.23472595214844 0.49778136610984802
      vertex 135.13099670410156 160.28176879882812 -3.1974423109204508e-14
      vertex 135.13099670410156 160.23472595214844 0.49778136610984802
    endloop
  endfacet
  facet normal -0 0 -1
    outer loop
      vertex 155.13099670410156 160.28176879882812 -3.1974423109204508e-14
      vertex 155.13099670410156 159.98855590820312 -3.1974423109204508e-14
      vertex 135.13099670410156 159.98855590820312 -3.1974423109204508e-14
    endloop
  endfacet
  facet normal 0 -0 -1
    outer loop
      vertex 155.13099670410156 160.28176879882812 -3.1974423109204508e-14
      vertex 135.13099670410156 159.98855590820312 -3.1974423109204508e-14
      vertex 135.13099670410156 160.28176879882812 -3.1974423109204508e-14
    endloop
  endfacet
  facet normal -0 -0.99556123143916242 0.094116069060168991
    outer loop
      vertex 155.13099670410156 159.98855590820312 -3.1974423109204508e-14
      vertex 155.13099670410156 160.03561401367188 0.49778136610984802
      vertex 135.13099670410156 160.03561401367188 0.49778136610984802
    endloop
  endfacet
  facet normal 0 -0.99556123143916242 0.094116069060168991
    outer loop
      vertex 155.13099670410156 159.98855590820312 -3.1974423109204508e-14
      vertex 135.13099670410156 160.03561401367188 0.49778136610984802
      vertex 135.13099670410156 159.98855590820312 -3.1974423109204508e-14
    endloop
  endfacet
  facet normal 0 0 1
    outer loop
      vertex 155.13099670410156 160.03561401367188 0.49778136610984802
      vertex 155.13099670410156 160.23472595214844 0.49778136610984802
      vertex 135.13099670410156 160.23472595214844 0.49778136610984802
    endloop
  endfacet
  facet normal 0 -0 1
    outer loop
      vertex 155.13099670410156 160.03561401367188 0.49778136610984802
      vertex 135.13099670410156 160.23472595214844 0.49778136610984802
      vertex 135.13099670410156 160.03561401367188 0.49778136610984802
    endloop
  endfacet
  facet normal 1 0 0
    outer loop
      vertex 155.13099670410156 160.23472595214844 0.49778136610984802
      vertex 155.13099670410156 159.98855590820312 -3.1974423109204508e-14
      vertex 155.13099670410156 160.28176879882812 -3.1974423109204508e-14
    endloop
  endfacet
  facet normal 1 -0 0
    outer loop
      vertex 155.13099670410156 159.98855590820312 -3.1974423109204508e-14
      vertex 155.13099670410156 160.23472595214844 0.49778136610984802
      vertex 155.13099670410156 160.03561401367188 0.49778136610984802
    endloop
  endfacet
  facet normal -1 0 0
    outer loop
      vertex 135.13099670410156 160.23472595214844 0.49778136610984802
      vertex 135.13099670410156 160.28176879882812 -3.1974423109204508e-14
      vertex 135.13099670410156 159.98855590820312 -3.1974423109204508e-14
    endloop
  endfacet
  facet normal -1 -0 0
    outer loop
      vertex 135.13099670410156 159.98855590820312 -3.1974423109204508e-14
      vertex 135.13099670410156 160.03561401367188 0.49778136610984802
      vertex 135.13099670410156 160.23472595214844 0.49778136610984802
    endloop
  endfacet
  facet normal 0 0.98228797969137238 0.18737749318912889
    outer loop
      vertex 155.13099670410156 159.22282409667969 0.49114513397216797
      vertex 155.13099670410156 159.31651306152344 2.6645352591003757e-15
      vertex 135.13099670410156 159.31651306152344 2.6645352591003757e-15
    endloop
  endfacet
  facet normal 0 0.98228797969137238 0.18737749318912889
    outer loop
      vertex 155.13099670410156 159.22282409667969 0.49114513397216797
      vertex 135.13099670410156 159.31651306152344 2.6645352591003757e-15
      vertex 135.13099670410156 159.22282409667969 0.49114513397216797
    endloop
  endfacet
  facet normal -0 0 -1
    outer loop
      vertex 155.13099670410156 159.31651306152344 2.6645352591003757e-15
      vertex 155.13099670410156 158.92915344238281 2.6645352591003757e-15
      vertex 135.13099670410156 158.92915344238281 2.6645352591003757e-15
    endloop
  endfacet
  facet normal 0 -0 -1
    outer loop
      vertex 155.13099670410156 159.31651306152344 2.6645352591003757e-15
      vertex 135.13099670410156 158.92915344238281 2.6645352591003757e-15
      vertex 135.13099670410156 159.31651306152344 2.6645352591003757e-15
    endloop
  endfacet
  facet normal -0 -0.98229359629356083 0.18734804690912332
    outer loop
      vertex 155.13099670410156 158.92915344238281 2.6645352591003757e-15
      vertex 155.13099670410156 159.0228271484375 0.49114513397216797
      vertex 135.13099670410156 159.0228271484375 0.49114513397216797
    endloop
  endfacet
  facet normal 0 -0.98229359629356083 0.18734804690912332
    outer loop
      vertex 155.13099670410156 158.92915344238281 2.6645352591003757e-15
      vertex 135.13099670410156 159.0228271484375 0.49114513397216797
      vertex 135.13099670410156 158.92915344238281 2.6645352591003757e-15
    endloop
  endfacet
  facet normal 0 0 1
    outer loop
      vertex 155.13099670410156 159.0228271484375 0.49114513397216797
      vertex 155.13099670410156 159.22282409667969 0.49114513397216797
      vertex 135.13099670410156 159.22282409667969 0.49114513397216797
    endloop
  endfacet
  facet normal 0 -0 1
    outer loop
      vertex 155.13099670410156 159.0228271484375 0.49114513397216797
      vertex 135.13099670410156 159.22282409667969 0.49114513397216797
      vertex 135.13099670410156 159.0228271484375 0.49114513397216797
    endloop
  endfacet
  facet normal 1 -0 0
    outer loop
      vertex 155.13099670410156 159.22282409667969 0.49114513397216797
      vertex 155.13099670410156 159.0228271484375 0.49114513397216797
      vertex 155.13099670410156 158.92915344238281 2.6645352591003757e-15
    endloop
  endfacet
  facet normal 1 0 0
    outer loop
      vertex 155.13099670410156 158.92915344238281 2.6645352591003757e-15
      vertex 155.13099670410156 159.31651306152344 2.6645352591003757e-15
      vertex 155.13099670410156 159.22282409667969 0.49114513397216797
    endloop
  endfacet
  facet normal -1 0 -0
    outer loop
      vertex 135.13099670410156 159.22282409667969 0.49114513397216797
      vertex 135.13099670410156 158.92915344238281 2.6645352591003757e-15
      vertex 135.13099670410156 159.0228271484375 0.49114513397216797
    endloop
  endfacet
  facet normal -1 -0 0
    outer loop
      vertex 135.13099670410156 158.92915344238281 2.6645352591003757e-15
      vertex 135.13099670410156 159.22282409667969 0.49114513397216797
      vertex 135.13099670410156 159.31651306152344 2.6645352591003757e-15
    endloop
  endfacet
  facet normal 0 0.97922227738351297 0.202789870249592
    outer loop
      vertex 155.13099670410156 158.62774658203125 0.48960977792739868
      vertex 155.13099670410156 158.72914123535156 2.6645352591003757e-15
      vertex 135.13099670410156 158.72914123535156 2.6645352591003757e-15
    endloop
  endfacet
  facet normal -0 0.97922227738351297 0.202789870249592
    outer loop
      vertex 155.13099670410156 158.62774658203125 0.48960977792739868
      vertex 135.13099670410156 158.72914123535156 2.6645352591003757e-15
      vertex 135.13099670410156 158.62774658203125 0.48960977792739868
    endloop
  endfacet
  facet normal -0 8.6893733038286272e-14 -1
    outer loop
      vertex 155.13099670410156 158.72914123535156 2.6645352591003757e-15
      vertex 155.13099670410156 158.33050537109375 -3.1974423109204508e-14
      vertex 135.13099670410156 158.33050537109375 -3.1974423109204508e-14
    endloop
  endfacet
  facet normal 0 8.6893733038286272e-14 -1
    outer loop
      vertex 155.13099670410156 158.72914123535156 2.6645352591003757e-15
      vertex 135.13099670410156 158.33050537109375 -3.1974423109204508e-14
      vertex 135.13099670410156 158.72914123535156 2.6645352591003757e-15
    endloop
  endfacet
  facet normal -0 -0.97922227738351586 0.20278987024957823
    outer loop
      vertex 155.13099670410156 158.33050537109375 -3.1974423109204508e-14
      vertex 155.13099670410156 158.43190002441406 0.48960977792739868
      vertex 135.13099670410156 158.43190002441406 0.48960977792739868
    endloop
  endfacet
  facet normal 0 -0.97922227738351586 0.20278987024957823
    outer loop
      vertex 155.13099670410156 158.33050537109375 -3.1974423109204508e-14
      vertex 135.13099670410156 158.43190002441406 0.48960977792739868
      vertex 135.13099670410156 158.33050537109375 -3.1974423109204508e-14
    endloop
  endfacet
  facet normal 0 0 1
    outer loop
      vertex 155.13099670410156 158.43190002441406 0.48960977792739868
      vertex 155.13099670410156 158.62774658203125 0.48960977792739868
      vertex 135.13099670410156 158.62774658203125 0.48960977792739868
    endloop
  endfacet
  facet normal 0 -0 1
    outer loop
      vertex 155.13099670410156 158.43190002441406 0.48960977792739868
      vertex 135.13099670410156 158.62774658203125 0.48960977792739868
      vertex 135.13099670410156 158.43190002441406 0.48960977792739868
    endloop
  endfacet
  facet normal 1 0 0
    outer loop
      vertex 155.13099670410156 158.43190002441406 0.48960977792739868
      vertex 155.13099670410156 158.33050537109375 -3.1974423109204508e-14
      vertex 155.13099670410156 158.72914123535156 2.6645352591003757e-15
    endloop
  endfacet
  facet normal 1 -0 -0
    outer loop
      vertex 155.13099670410156 158.72914123535156 2.6645352591003757e-15
      vertex 155.13099670410156 158.62774658203125 0.48960977792739868
      vertex 155.13099670410156 158.43190002441406 0.48960977792739868
    endloop
  endfacet
  facet normal -1 0 0
    outer loop
      vertex 135.13099670410156 158.43190002441406 0.48960977792739868
      vertex 135.13099670410156 158.72914123535156 2.6645352591003757e-15
      vertex 135.13099670410156 158.33050537109375 -3.1974423109204508e-14
    endloop
  endfacet
  facet normal -1 -0 0
    outer loop
      vertex 135.13099670410156 158.72914123535156 2.6645352591003757e-15
      vertex 135.13099670410156 158.43190002441406 0.48960977792739868
      vertex 135.13099670410156 158.62774658203125 0.48960977792739868
    endloop
  endfacet
  facet normal 0 0.99556409042905802 0.094085821716995671
    outer loop
      vertex 155.13099670410156 158.08345031738281 0.49778136610984802
      vertex 155.13099670410156 158.1304931640625 -3.1974423109204508e-14
      vertex 135.13099670410156 158.1304931640625 -3.1974423109204508e-14
    endloop
  endfacet
  facet normal -0 0.99556409042905802 0.094085821716995671
    outer loop
      vertex 155.13099670410156 158.08345031738281 0.49778136610984802
      vertex 135.13099670410156 158.1304931640625 -3.1974423109204508e-14
      vertex 135.13099670410156 158.08345031738281 0.49778136610984802
    endloop
  endfacet
  facet normal -0 0 -1
    outer loop
      vertex 155.13099670410156 158.1304931640625 -3.1974423109204508e-14
      vertex 155.13099670410156 157.8372802734375 -3.1974423109204508e-14
      vertex 135.13099670410156 157.8372802734375 -3.1974423109204508e-14
    endloop
  endfacet
  facet normal 0 -0 -1
    outer loop
      vertex 155.13099670410156 158.1304931640625 -3.1974423109204508e-14
      vertex 135.13099670410156 157.8372802734375 -3.1974423109204508e-14
      vertex 135.13099670410156 158.1304931640625 -3.1974423109204508e-14
    endloop
  endfacet
  facet normal -0 -0.99556123143916242 0.094116069060168991
    outer loop
      vertex 155.13099670410156 157.8372802734375 -3.1974423109204508e-14
      vertex 155.13099670410156 157.88433837890625 0.49778136610984802
      vertex 135.13099670410156 157.88433837890625 0.49778136610984802
    endloop
  endfacet
  facet normal 0 -0.99556123143916242 0.094116069060168991
    outer loop
      vertex 155.13099670410156 157.8372802734375 -3.1974423109204508e-14
      vertex 135.13099670410156 157.88433837890625 0.49778136610984802
      vertex 135.13099670410156 157.8372802734375 -3.1974423109204508e-14
    endloop
  endfacet
  facet normal 0 0 1
    outer loop
      vertex 155.13099670410156 157.88433837890625 0.49778136610984802
      vertex 155.13099670410156 158.08345031738281 0.49778136610984802
      vertex 135.13099670410156 158.08345031738281 0.49778136610984802
    endloop
  endfacet
  facet normal 0 -0 1
    outer loop
      vertex 155.13099670410156 157.88433837890625 0.49778136610984802
      vertex 135.13099670410156 158.08345031738281 0.49778136610984802
      vertex 135.13099670410156 157.88433837890625 0.49778136610984802
    endloop
  endfacet
  facet normal 1 0 0
    outer loop
      vertex 155.13099670410156 158.08345031738281 0.49778136610984802
      vertex 155.13099670410156 157.8372802734375 -3.1974423109204508e-14
      vertex 155.13099670410156 158.1304931640625 -3.1974423109204508e-14
    endloop
  endfacet
  facet normal 1 -0 0
    outer loop
      vertex 155.13099670410156 157.8372802734375 -3.1974423109204508e-14
      vertex 155.13099670410156 158.08345031738281 0.49778136610984802
      vertex 155.13099670410156 157.88433837890625 0.49778136610984802
    endloop
  endfacet
  facet normal -1 0 0
    outer loop
      vertex 135.13099670410156 158.08345031738281 0.49778136610984802
      vertex 135.13099670410156 158.1304931640625 -3.1974423109204508e-14
      vertex 135.13099670410156 157.8372802734375 -3.1974423109204508e-14
    endloop
  endfacet
  facet normal -1 -0 0
    outer loop
      vertex 135.13099670410156 157.8372802734375 -3.1974423109204508e-14
      vertex 135.13099670410156 157.88433837890625 0.49778136610984802
      vertex 135.13099670410156 158.08345031738281 0.49778136610984802
    endloop
  endfacet
  facet normal 0 0.98228797969137238 0.18737749318912889
    outer loop
      vertex 155.13099670410156 157.07154846191406 0.49114513397216797
      vertex 155.13099670410156 157.16523742675781 2.6645352591003757e-15
      vertex 135.13099670410156 157.16523742675781 2.6645352591003757e-15
    endloop
  endfacet
  facet normal 0 0.98228797969137238 0.18737749318912889
    outer loop
      vertex 155.13099670410156 157.07154846191406 0.49114513397216797
      vertex 135.13099670410156 157.16523742675781 2.6645352591003757e-15
      vertex 135.13099670410156 157.07154846191406 0.49114513397216797
    endloop
  endfacet
  facet normal -0 0 -1
    outer loop
      vertex 155.13099670410156 157.16523742675781 2.6645352591003757e-15
      vertex 155.13099670410156 156.77787780761719 2.6645352591003757e-15
      vertex 135.13099670410156 156.77787780761719 2.6645352591003757e-15
    endloop
  endfacet
  facet normal 0 -0 -1
    outer loop
      vertex 155.13099670410156 157.16523742675781 2.6645352591003757e-15
      vertex 135.13099670410156 156.77787780761719 2.6645352591003757e-15
      vertex 135.13099670410156 157.16523742675781 2.6645352591003757e-15
    endloop
  endfacet
  facet normal -0 -0.98229359629356083 0.18734804690912332
    outer loop
      vertex 155.13099670410156 156.77787780761719 2.6645352591003757e-15
      vertex 155.13099670410156 156.87155151367188 0.49114513397216797
      vertex 135.13099670410156 156.87155151367188 0.49114513397216797
    endloop
  endfacet
  facet normal 0 -0.98229359629356083 0.18734804690912332
    outer loop
      vertex 155.13099670410156 156.77787780761719 2.6645352591003757e-15
      vertex 135.13099670410156 156.87155151367188 0.49114513397216797
      vertex 135.13099670410156 156.77787780761719 2.6645352591003757e-15
    endloop
  endfacet
  facet normal 0 0 1
    outer loop
      vertex 155.13099670410156 156.87155151367188 0.49114513397216797
      vertex 155.13099670410156 157.07154846191406 0.49114513397216797
      vertex 135.13099670410156 157.07154846191406 0.49114513397216797
    endloop
  endfacet
  facet normal 0 -0 1
    outer loop
      vertex 155.13099670410156 156.87155151367188 0.49114513397216797
      vertex 135.13099670410156 157.07154846191406 0.49114513397216797
      vertex 135.13099670410156 156.87155151367188 0.49114513397216797
    endloop
  endfacet
  facet normal 1 -0 0
    outer loop
      vertex 155.13099670410156 157.07154846191406 0.49114513397216797
      vertex 155.13099670410156 156.87155151367188 0.49114513397216797
      vertex 155.13099670410156 156.77787780761719 2.6645352591003757e-15
    endloop
  endfacet
  facet normal 1 0 0
    outer loop
      vertex 155.13099670410156 156.77787780761719 2.6645352591003757e-15
      vertex 155.13099670410156 157.16523742675781 2.6645352591003757e-15
      vertex 155.13099670410156 157.07154846191406 0.49114513397216797
    endloop
  endfacet
  facet normal -1 0 -0
    outer loop
      vertex 135.13099670410156 157.07154846191406 0.49114513397216797
      vertex 135.13099670410156 156.77787780761719 2.6645352591003757e-15
      vertex 135.13099670410156 156.87155151367188 0.49114513397216797
    endloop
  endfacet
  facet normal -1 -0 0
    outer loop
      vertex 135.13099670410156 156.77787780761719 2.6645352591003757e-15
      vertex 135.13099670410156 157.07154846191406 0.49114513397216797
      vertex 135.13099670410156 157.16523742675781 2.6645352591003757e-15
    endloop
  endfacet
  facet normal 0 0.97922227738351297 0.202789870249592
    outer loop
      vertex 155.13099670410156 156.47647094726562 0.48960977792739868
      vertex 155.13099670410156 156.57786560058594 2.6645352591003757e-15
      vertex 135.13099670410156 156.57786560058594 2.6645352591003757e-15
    endloop
  endfacet
  facet normal -0 0.97922227738351297 0.202789870249592
    outer loop
      vertex 155.13099670410156 156.47647094726562 0.48960977792739868
      vertex 135.13099670410156 156.57786560058594 2.6645352591003757e-15
      vertex 135.13099670410156 156.47647094726562 0.48960977792739868
    endloop
  endfacet
  facet normal -0 8.6893733038286272e-14 -1
    outer loop
      vertex 155.13099670410156 156.57786560058594 2.6645352591003757e-15
      vertex 155.13099670410156 156.17922973632812 -3.1974423109204508e-14
      vertex 135.13099670410156 156.17922973632812 -3.1974423109204508e-14
    endloop
  endfacet
  facet normal 0 8.6893733038286272e-14 -1
    outer loop
      vertex 155.13099670410156 156.57786560058594 2.6645352591003757e-15
      vertex 135.13099670410156 156.17922973632812 -3.1974423109204508e-14
      vertex 135.13099670410156 156.57786560058594 2.6645352591003757e-15
    endloop
  endfacet
  facet normal -0 -0.97922227738351586 0.20278987024957823
    outer loop
      vertex 155.13099670410156 156.17922973632812 -3.1974423109204508e-14
      vertex 155.13099670410156 156.28062438964844 0.48960977792739868
      vertex 135.13099670410156 156.28062438964844 0.48960977792739868
    endloop
  endfacet
  facet normal 0 -0.97922227738351586 0.20278987024957823
    outer loop
      vertex 155.13099670410156 156.17922973632812 -3.1974423109204508e-14
      vertex 135.13099670410156 156.28062438964844 0.48960977792739868
      vertex 135.13099670410156 156.17922973632812 -3.1974423109204508e-14
    endloop
  endfacet
  facet normal 0 0 1
    outer loop
      vertex 155.13099670410156 156.28062438964844 0.48960977792739868
      vertex 155.13099670410156 156.47647094726562 0.48960977792739868
      vertex 135.13099670410156 156.47647094726562 0.48960977792739868
    endloop
  endfacet
  facet normal 0 -0 1
    outer loop
      vertex 155.13099670410156 156.28062438964844 0.48960977792739868
      vertex 135.13099670410156 156.47647094726562 0.48960977792739868
      vertex 135.13099670410156 156.28062438964844 0.48960977792739868
    endloop
  endfacet
  facet normal 1 0 0
    outer loop
      vertex 155.13099670410156 156.28062438964844 0.48960977792739868
      vertex 155.13099670410156 156.17922973632812 -3.1974423109204508e-14
      vertex 155.13099670410156 156.57786560058594 2.6645352591003757e-15
    endloop
  endfacet
  facet normal 1 -0 -0
    outer loop
      vertex 155.13099670410156 156.57786560058594 2.6645352591003757e-15
      vertex 155.13099670410156 156.47647094726562 0.48960977792739868
      vertex 155.13099670410156 156.28062438964844 0.48960977792739868
    endloop
  endfacet
  facet normal -1 0 0
    outer loop
      vertex 135.13099670410156 156.28062438964844 0.48960977792739868
      vertex 135.13099670410156 156.57786560058594 2.6645352591003757e-15
      vertex 135.13099670410156 156.17922973632812 -3.1974423109204508e-14
    endloop
  endfacet
  facet normal -1 -0 0
    outer loop
      vertex 135.13099670410156 156.57786560058594 2.6645352591003757e-15
      vertex 135.13099670410156 156.28062438964844 0.48960977792739868
      vertex 135.13099670410156 156.47647094726562 0.48960977792739868
    endloop
  endfacet
  facet normal 0 0.99556123143916242 0.094116069060168991
    outer loop
      vertex 155.13099670410156 155.93217468261719 0.49778136610984802
      vertex 155.13099670410156 155.97923278808594 -3.1974423109204508e-14
      vertex 135.13099670410156 155.97923278808594 -3.1974423109204508e-14
    endloop
  endfacet
  facet normal 0 0.99556123143916242 0.094116069060168991
    outer loop
      vertex 155.13099670410156 155.93217468261719 0.49778136610984802
      vertex 135.13099670410156 155.97923278808594 -3.1974423109204508e-14
      vertex 135.13099670410156 155.93217468261719 0.49778136610984802
    endloop
  endfacet
  facet normal -0 0 -1
    outer loop
      vertex 155.13099670410156 155.97923278808594 -3.1974423109204508e-14
      vertex 155.13099670410156 155.68601989746094 -3.1974423109204508e-14
      vertex 135.13099670410156 155.68601989746094 -3.1974423109204508e-14
    endloop
  endfacet
  facet normal 0 -0 -1
    outer loop
      vertex 155.13099670410156 155.97923278808594 -3.1974423109204508e-14
      vertex 135.13099670410156 155.68601989746094 -3.1974423109204508e-14
      vertex 135.13099670410156 155.97923278808594 -3.1974423109204508e-14
    endloop
  endfacet
  facet normal -0 -0.99556409042905802 0.094085821716995671
    outer loop
      vertex 155.13099670410156 155.68601989746094 -3.1974423109204508e-14
      vertex 155.13099670410156 155.73306274414062 0.49778136610984802
      vertex 135.13099670410156 155.73306274414062 0.49778136610984802
    endloop
  endfacet
  facet normal 0 -0.99556409042905802 0.094085821716995671
    outer loop
      vertex 155.13099670410156 155.68601989746094 -3.1974423109204508e-14
      vertex 135.13099670410156 155.73306274414062 0.49778136610984802
      vertex 135.13099670410156 155.68601989746094 -3.1974423109204508e-14
    endloop
  endfacet
  facet normal 0 0 1
    outer loop
      vertex 155.13099670410156 155.73306274414062 0.49778136610984802
      vertex 155.13099670410156 155.93217468261719 0.49778136610984802
      vertex 135.13099670410156 155.93217468261719 0.49778136610984802
    endloop
  endfacet
  facet normal 0 -0 1
    outer loop
      vertex 155.13099670410156 155.73306274414062 0.49778136610984802
      vertex 135.13099670410156 155.93217468261719 0.49778136610984802
      vertex 135.13099670410156 155.73306274414062 0.49778136610984802
    endloop
  endfacet
  facet normal 1 0 0
    outer loop
      vertex 155.13099670410156 155.93217468261719 0.49778136610984802
      vertex 155.13099670410156 155.68601989746094 -3.1974423109204508e-14
      vertex 155.13099670410156 155.97923278808594 -3.1974423109204508e-14
    endloop
  endfacet
  facet normal 1 -0 0
    outer loop
      vertex 155.13099670410156 155.68601989746094 -3.1974423109204508e-14
      vertex 155.13099670410156 155.93217468261719 0.49778136610984802
      vertex 155.13099670410156 155.73306274414062 0.49778136610984802
    endloop
  endfacet
  facet normal -1 0 0
    outer loop
      vertex 135.13099670410156 155.93217468261719 0.49778136610984802
      vertex 135.13099670410156 155.97923278808594 -3.1974423109204508e-14
      vertex 135.13099670410156 155.68601989746094 -3.1974423109204508e-14
    endloop
  endfacet
  facet normal -1 -0 0
    outer loop
      vertex 135.13099670410156 155.68601989746094 -3.1974423109204508e-14
      vertex 135.13099670410156 155.73306274414062 0.49778136610984802
      vertex 135.13099670410156 155.93217468261719 0.49778136610984802
    endloop
  endfacet
  facet normal 0 0.98229359629356083 0.18734804690912332
    outer loop
      vertex 155.13099670410156 154.9202880859375 0.49114513397216797
      vertex 155.13099670410156 155.01396179199219 2.6645352591003757e-15
      vertex 135.13099670410156 155.01396179199219 2.6645352591003757e-15
    endloop
  endfacet
  facet normal 0 0.98229359629356083 0.18734804690912332
    outer loop
      vertex 155.13099670410156 154.9202880859375 0.49114513397216797
      vertex 135.13099670410156 155.01396179199219 2.6645352591003757e-15
      vertex 135.13099670410156 154.9202880859375 0.49114513397216797
    endloop
  endfacet
  facet normal -0 0 -1
    outer loop
      vertex 155.13099670410156 155.01396179199219 2.6645352591003757e-15
      vertex 155.13099670410156 154.62660217285156 2.6645352591003757e-15
      vertex 135.13099670410156 154.62660217285156 2.6645352591003757e-15
    endloop
  endfacet
  facet normal 0 -0 -1
    outer loop
      vertex 155.13099670410156 155.01396179199219 2.6645352591003757e-15
      vertex 135.13099670410156 154.62660217285156 2.6645352591003757e-15
      vertex 135.13099670410156 155.01396179199219 2.6645352591003757e-15
    endloop
  endfacet
  facet normal -0 -0.98229359629356083 0.18734804690912332
    outer loop
      vertex 155.13099670410156 154.62660217285156 2.6645352591003757e-15
      vertex 155.13099670410156 154.72027587890625 0.49114513397216797
      vertex 135.13099670410156 154.72027587890625 0.49114513397216797
    endloop
  endfacet
  facet normal 0 -0.98229359629356083 0.18734804690912332
    outer loop
      vertex 155.13099670410156 154.62660217285156 2.6645352591003757e-15
      vertex 135.13099670410156 154.72027587890625 0.49114513397216797
      vertex 135.13099670410156 154.62660217285156 2.6645352591003757e-15
    endloop
  endfacet
  facet normal 0 0 1
    outer loop
      vertex 155.13099670410156 154.72027587890625 0.49114513397216797
      vertex 155.13099670410156 154.9202880859375 0.49114513397216797
      vertex 135.13099670410156 154.9202880859375 0.49114513397216797
    endloop
  endfacet
  facet normal 0 -0 1
    outer loop
      vertex 155.13099670410156 154.72027587890625 0.49114513397216797
      vertex 135.13099670410156 154.9202880859375 0.49114513397216797
      vertex 135.13099670410156 154.72027587890625 0.49114513397216797
    endloop
  endfacet
  facet normal 1 -0 0
    outer loop
      vertex 155.13099670410156 154.9202880859375 0.49114513397216797
      vertex 155.13099670410156 154.72027587890625 0.49114513397216797
      vertex 155.13099670410156 154.62660217285156 2.6645352591003757e-15
    endloop
  endfacet
  facet normal 1 0 0
    outer loop
      vertex 155.13099670410156 154.62660217285156 2.6645352591003757e-15
      vertex 155.13099670410156 155.01396179199219 2.6645352591003757e-15
      vertex 155.13099670410156 154.9202880859375 0.49114513397216797
    endloop
  endfacet
  facet normal -1 0 -0
    outer loop
      vertex 135.13099670410156 154.9202880859375 0.49114513397216797
      vertex 135.13099670410156 154.62660217285156 2.6645352591003757e-15
      vertex 135.13099670410156 154.72027587890625 0.49114513397216797
    endloop
  endfacet
  facet normal -1 -0 0
    outer loop
      vertex 135.13099670410156 154.62660217285156 2.6645352591003757e-15
      vertex 135.13099670410156 154.9202880859375 0.49114513397216797
      vertex 135.13099670410156 155.01396179199219 2.6645352591003757e-15
    endloop
  endfacet
  facet normal 0 0.97921621689740901 0.20281913264070148
    outer loop
      vertex 155.13099670410156 154.3251953125 0.48960977792739868
      vertex 155.13099670410156 154.42660522460938 2.6645352591003757e-15
      vertex 135.13099670410156 154.42660522460938 2.6645352591003757e-15
    endloop
  endfacet
  facet normal -0 0.97921621689740912 0.2028191326407015
    outer loop
      vertex 155.13099670410156 154.3251953125 0.48960977792739868
      vertex 135.13099670410156 154.42660522460938 2.6645352591003757e-15
      vertex 135.13099670410156 154.3251953125 0.48960977792739868
    endloop
  endfacet
  facet normal -0 8.6890407089689539e-14 -1
    outer loop
      vertex 155.13099670410156 154.42660522460938 2.6645352591003757e-15
      vertex 155.13099670410156 154.0279541015625 -3.1974423109204508e-14
      vertex 135.13099670410156 154.0279541015625 -3.1974423109204508e-14
    endloop
  endfacet
  facet normal 0 8.6890407089689539e-14 -1
    outer loop
      vertex 155.13099670410156 154.42660522460938 2.6645352591003757e-15
      vertex 135.13099670410156 154.0279541015625 -3.1974423109204508e-14
      vertex 135.13099670410156 154.42660522460938 2.6645352591003757e-15
    endloop
  endfacet
  facet normal -0 -0.97922227738351586 0.20278987024957823
    outer loop
      vertex 155.13099670410156 154.0279541015625 -3.1974423109204508e-14
      vertex 155.13099670410156 154.12934875488281 0.48960977792739868
      vertex 135.13099670410156 154.12934875488281 0.48960977792739868
    endloop
  endfacet
  facet normal 0 -0.97922227738351586 0.20278987024957823
    outer loop
      vertex 155.13099670410156 154.0279541015625 -3.1974423109204508e-14
      vertex 135.13099670410156 154.12934875488281 0.48960977792739868
      vertex 135.13099670410156 154.0279541015625 -3.1974423109204508e-14
    endloop
  endfacet
  facet normal 0 0 1
    outer loop
      vertex 155.13099670410156 154.12934875488281 0.48960977792739868
      vertex 155.13099670410156 154.3251953125 0.48960977792739868
      vertex 135.13099670410156 154.3251953125 0.48960977792739868
    endloop
  endfacet
  facet normal 0 -0 1
    outer loop
      vertex 155.13099670410156 154.12934875488281 0.48960977792739868
      vertex 135.13099670410156 154.3251953125 0.48960977792739868
      vertex 135.13099670410156 154.12934875488281 0.48960977792739868
    endloop
  endfacet
  facet normal 1 0 0
    outer loop
      vertex 155.13099670410156 154.12934875488281 0.48960977792739868
      vertex 155.13099670410156 154.0279541015625 -3.1974423109204508e-14
      vertex 155.13099670410156 154.42660522460938 2.6645352591003757e-15
    endloop
  endfacet
  facet normal 1 -0 -0
    outer loop
      vertex 155.13099670410156 154.42660522460938 2.6645352591003757e-15
      vertex 155.13099670410156 154.3251953125 0.48960977792739868
      vertex 155.13099670410156 154.12934875488281 0.48960977792739868
    endloop
  endfacet
  facet normal -1 0 0
    outer loop
      vertex 135.13099670410156 154.12934875488281 0.48960977792739868
      vertex 135.13099670410156 154.42660522460938 2.6645352591003757e-15
      vertex 135.13099670410156 154.0279541015625 -3.1974423109204508e-14
    endloop
  endfacet
  facet normal -1 -0 0
    outer loop
      vertex 135.13099670410156 154.42660522460938 2.6645352591003757e-15
      vertex 135.13099670410156 154.12934875488281 0.48960977792739868
      vertex 135.13099670410156 154.3251953125 0.48960977792739868
    endloop
  endfacet
  facet normal 0 0.99556123143916242 0.094116069060168991
    outer loop
      vertex 155.13099670410156 153.78089904785156 0.49778136610984802
      vertex 155.13099670410156 153.82795715332031 -3.1974423109204508e-14
      vertex 135.13099670410156 153.82795715332031 -3.1974423109204508e-14
    endloop
  endfacet
  facet normal 0 0.99556123143916242 0.094116069060168991
    outer loop
      vertex 155.13099670410156 153.78089904785156 0.49778136610984802
      vertex 135.13099670410156 153.82795715332031 -3.1974423109204508e-14
      vertex 135.13099670410156 153.78089904785156 0.49778136610984802
    endloop
  endfacet
  facet normal -0 0 -1
    outer loop
      vertex 155.13099670410156 153.82795715332031 -3.1974423109204508e-14
      vertex 155.13099670410156 153.53474426269531 -3.1974423109204508e-14
      vertex 135.13099670410156 153.53474426269531 -3.1974423109204508e-14
    endloop
  endfacet
  facet normal 0 -0 -1
    outer loop
      vertex 155.13099670410156 153.82795715332031 -3.1974423109204508e-14
      vertex 135.13099670410156 153.53474426269531 -3.1974423109204508e-14
      vertex 135.13099670410156 153.82795715332031 -3.1974423109204508e-14
    endloop
  endfacet
  facet normal -0 -0.99556409042905802 0.094085821716995671
    outer loop
      vertex 155.13099670410156 153.53474426269531 -3.1974423109204508e-14
      vertex 155.13099670410156 153.581787109375 0.49778136610984802
      vertex 135.13099670410156 153.581787109375 0.49778136610984802
    endloop
  endfacet
  facet normal 0 -0.99556409042905802 0.094085821716995671
    outer loop
      vertex 155.13099670410156 153.53474426269531 -3.1974423109204508e-14
      vertex 135.13099670410156 153.581787109375 0.49778136610984802
      vertex 135.13099670410156 153.53474426269531 -3.1974423109204508e-14
    endloop
  endfacet
  facet normal 0 0 1
    outer loop
      vertex 155.13099670410156 153.581787109375 0.49778136610984802
      vertex 155.13099670410156 153.78089904785156 0.49778136610984802
      vertex 135.13099670410156 153.78089904785156 0.49778136610984802
    endloop
  endfacet
  facet normal 0 -0 1
    outer loop
      vertex 155.13099670410156 153.581787109375 0.49778136610984802
      vertex 135.13099670410156 153.78089904785156 0.49778136610984802
      vertex 135.13099670410156 153.581787109375 0.49778136610984802
    endloop
  endfacet
  facet normal 1 0 0
    outer loop
      vertex 155.13099670410156 153.78089904785156 0.49778136610984802
      vertex 155.13099670410156 153.53474426269531 -3.1974423109204508e-14
      vertex 155.13099670410156 153.82795715332031 -3.1974423109204508e-14
    endloop
  endfacet
  facet normal 1 -0 0
    outer loop
      vertex 155.13099670410156 153.53474426269531 -3.1974423109204508e-14
      vertex 155.13099670410156 153.78089904785156 0.49778136610984802
      vertex 155.13099670410156 153.581787109375 0.49778136610984802
    endloop
  endfacet
  facet normal -1 0 0
    outer loop
      vertex 135.13099670410156 153.78089904785156 0.49778136610984802
      vertex 135.13099670410156 153.82795715332031 -3.1974423109204508e-14
      vertex 135.13099670410156 153.53474426269531 -3.1974423109204508e-14
    endloop
  endfacet
  facet normal -1 -0 0
    outer loop
      vertex 135.13099670410156 153.53474426269531 -3.1974423109204508e-14
      vertex 135.13099670410156 153.581787109375 0.49778136610984802
      vertex 135.13099670410156 153.78089904785156 0.49778136610984802
    endloop
  endfacet
endsolid OBJECT
