solid OBJECT
  facet normal 0 -0.21080725799343505 -0.97752764665624137
    outer loop
      vertex -61.319999694824219 285.28359985351562 1.9044959545135498
      vertex -60 285.28359985351562 1.9044959545135498
      vertex -60 284.3165283203125 2.1130483150482178
    endloop
  endfacet
  facet normal 0 -0.21080725799343508 -0.97752764665624148
    outer loop
      vertex -61.319999694824219 285.28359985351562 1.9044959545135498
      vertex -60 284.3165283203125 2.1130483150482178
      vertex -60.659999847412109 284.3165283203125 2.1130483150482178
    endloop
  endfacet
  facet normal 0 -0.21080725799343505 -0.97752764665624137
    outer loop
      vertex -61.319999694824219 285.28359985351562 1.9044959545135498
      vertex -60.659999847412109 284.3165283203125 2.1130483150482178
      vertex -61.319999694824219 284.3165283203125 2.1130483150482178
    endloop
  endfacet
  facet normal 0 0.17931635347911307 -0.98379146437390563
    outer loop
      vertex -61.319999694824219 283.26309204101562 1.921032190322876
      vertex -61.319999694824219 283.78982543945312 2.0170402526855469
      vertex -60 283.78982543945312 2.0170402526855469
    endloop
  endfacet
  facet normal 0 0.17931635347911307 -0.98379146437390563
    outer loop
      vertex -61.319999694824219 283.26309204101562 1.921032190322876
      vertex -60 283.78982543945312 2.0170402526855469
      vertex -60 283.26309204101562 1.921032190322876
    endloop
  endfacet
  facet normal 0 0.1793264091061397 -0.98378963147468557
    outer loop
      vertex -61.319999694824219 283.78982543945312 2.0170402526855469
      vertex -61.319999694824219 284.3165283203125 2.1130483150482178
      vertex -60.659999847412109 284.3165283203125 2.1130483150482178
    endloop
  endfacet
  facet normal 0 0.1793264091061397 -0.98378963147468557
    outer loop
      vertex -61.319999694824219 283.78982543945312 2.0170402526855469
      vertex -60.659999847412109 284.3165283203125 2.1130483150482178
      vertex -60 283.78982543945312 2.0170402526855469
    endloop
  endfacet
  facet normal 0 0.1793264091061397 -0.98378963147468557
    outer loop
      vertex -60 284.3165283203125 2.1130483150482178
      vertex -60 283.78982543945312 2.0170402526855469
      vertex -60.659999847412109 284.3165283203125 2.1130483150482178
    endloop
  endfacet
  facet normal -0 0.97449112248696645 -0.22442605061376497
    outer loop
      vertex -60 285.17138671875 1.4172499179840088
      vertex -60 285.28359985351562 1.9044959545135498
      vertex -59.799999237060547 285.28359985351562 1.9044959545135498
    endloop
  endfacet
  facet normal 0 0.97449112248696645 -0.22442605061376497
    outer loop
      vertex -60 285.17138671875 1.4172499179840088
      vertex -59.799999237060547 285.28359985351562 1.9044959545135498
      vertex -59.799999237060547 285.17138671875 1.4172499179840088
    endloop
  endfacet
  facet normal 0 0.97449111648275077 -0.22442607668495645
    outer loop
      vertex -59.799999237060547 285.17138671875 1.4172499179840088
      vertex -59.799999237060547 285.05917358398438 0.93000394105911255
      vertex -60 285.05917358398438 0.93000394105911255
    endloop
  endfacet
  facet normal -0 0.97449111648275077 -0.22442607668495645
    outer loop
      vertex -59.799999237060547 285.17138671875 1.4172499179840088
      vertex -60 285.05917358398438 0.93000394105911255
      vertex -60 285.17138671875 1.4172499179840088
    endloop
  endfacet
  facet normal -0 0.97449111648275077 -0.22442607668495645
    outer loop
      vertex -60 284.94696044921875 0.44275796413421631
      vertex -60 285.05917358398438 0.93000394105911255
      vertex -59.799999237060547 285.05917358398438 0.93000394105911255
    endloop
  endfacet
  facet normal 0 0.97449111648275077 -0.22442607668495645
    outer loop
      vertex -60 284.94696044921875 0.44275796413421631
      vertex -59.799999237060547 285.05917358398438 0.93000394105911255
      vertex -59.799999237060547 284.94696044921875 0.44275796413421631
    endloop
  endfacet
  facet normal 0 0.0069623458351311595 -0.99997576257650977
    outer loop
      vertex -60 284.44686889648438 0.4392760694026947
      vertex -60 284.94696044921875 0.44275796413421631
      vertex -59.799999237060547 284.94696044921875 0.44275796413421631
    endloop
  endfacet
  facet normal 0 0.0069623458351311595 -0.99997576257650977
    outer loop
      vertex -60 284.44686889648438 0.4392760694026947
      vertex -59.799999237060547 284.94696044921875 0.44275796413421631
      vertex -59.799999237060547 284.44686889648438 0.4392760694026947
    endloop
  endfacet
  facet normal 0 0.0069622862457313752 -0.99997576299140001
    outer loop
      vertex -59.799999237060547 284.44686889648438 0.4392760694026947
      vertex -59.799999237060547 283.94677734375 0.43579420447349548
      vertex -60 283.94677734375 0.43579420447349548
    endloop
  endfacet
  facet normal 0 0.0069622862457313752 -0.99997576299140001
    outer loop
      vertex -59.799999237060547 284.44686889648438 0.4392760694026947
      vertex -60 283.94677734375 0.43579420447349548
      vertex -60 284.44686889648438 0.4392760694026947
    endloop
  endfacet
  facet normal -0 0.0069627707105314801 -0.99997575961821816
    outer loop
      vertex -60 283.44671630859375 0.43231230974197388
      vertex -60 283.94677734375 0.43579420447349548
      vertex -59.799999237060547 283.94677734375 0.43579420447349548
    endloop
  endfacet
  facet normal -0 0.0069627707105314801 -0.99997575961821816
    outer loop
      vertex -60 283.44671630859375 0.43231230974197388
      vertex -59.799999237060547 283.94677734375 0.43579420447349548
      vertex -59.799999237060547 283.44671630859375 0.43231230974197388
    endloop
  endfacet
  facet normal -0 -0.9924763997604531 -0.12243608911807581
    outer loop
      vertex -60 283.385498046875 0.92855226993560791
      vertex -60 283.44671630859375 0.43231230974197388
      vertex -59.799999237060547 283.44671630859375 0.43231230974197388
    endloop
  endfacet
  facet normal -0 -0.9924763997604531 -0.12243608911807581
    outer loop
      vertex -60 283.385498046875 0.92855226993560791
      vertex -59.799999237060547 283.44671630859375 0.43231230974197388
      vertex -59.799999237060547 283.385498046875 0.92855226993560791
    endloop
  endfacet
  facet normal 0 -0.99247639797344089 -0.12243610360373448
    outer loop
      vertex -59.799999237060547 283.385498046875 0.92855226993560791
      vertex -59.799999237060547 283.32427978515625 1.4247921705245972
      vertex -60 283.32427978515625 1.4247921705245972
    endloop
  endfacet
  facet normal 0 -0.99247639797344089 -0.12243610360373448
    outer loop
      vertex -59.799999237060547 283.385498046875 0.92855226993560791
      vertex -60 283.32427978515625 1.4247921705245972
      vertex -60 283.385498046875 0.92855226993560791
    endloop
  endfacet
  facet normal -0 -0.99248381643656514 -0.12237595397589537
    outer loop
      vertex -60 283.26309204101562 1.921032190322876
      vertex -60 283.32427978515625 1.4247921705245972
      vertex -59.799999237060547 283.32427978515625 1.4247921705245972
    endloop
  endfacet
  facet normal -0 -0.99248381643656514 -0.12237595397589537
    outer loop
      vertex -60 283.26309204101562 1.921032190322876
      vertex -59.799999237060547 283.32427978515625 1.4247921705245972
      vertex -59.799999237060547 283.26309204101562 1.921032190322876
    endloop
  endfacet
  facet normal 1 0 0
    outer loop
      vertex -59.799999237060547 283.76828002929688 2.0748538970947266
      vertex -59.799999237060547 283.7698974609375 1.8405362367630005
      vertex -59.799999237060547 284.276123046875 1.8440608978271484
    endloop
  endfacet
  facet normal 1 0 0
    outer loop
      vertex -59.799999237060547 283.76828002929688 2.0748538970947266
      vertex -59.799999237060547 284.276123046875 1.8440608978271484
      vertex -59.799999237060547 284.27447509765625 2.078378438949585
    endloop
  endfacet
  facet normal 1 0 0
    outer loop
      vertex -59.799999237060547 284.27447509765625 2.078378438949585
      vertex -59.799999237060547 284.276123046875 1.8440608978271484
      vertex -59.799999237060547 284.7823486328125 1.8475854396820068
    endloop
  endfacet
  facet normal 1 0 0
    outer loop
      vertex -59.799999237060547 284.27447509765625 2.078378438949585
      vertex -59.799999237060547 284.7823486328125 1.8475854396820068
      vertex -59.799999237060547 284.78070068359375 2.0819029808044434
    endloop
  endfacet
  facet normal 1 -0 -0
    outer loop
      vertex -59.799999237060547 285.17138671875 1.4172499179840088
      vertex -59.799999237060547 284.7823486328125 1.8475854396820068
      vertex -59.799999237060547 284.276123046875 1.8440608978271484
    endloop
  endfacet
  facet normal 1 0 -0
    outer loop
      vertex -59.799999237060547 285.05917358398438 0.93000394105911255
      vertex -59.799999237060547 284.44686889648438 0.4392760694026947
      vertex -59.799999237060547 284.94696044921875 0.44275796413421631
    endloop
  endfacet
  facet normal 1 0 -0
    outer loop
      vertex -59.799999237060547 285.17138671875 1.4172499179840088
      vertex -59.799999237060547 283.32427978515625 1.4247921705245972
      vertex -59.799999237060547 285.05917358398438 0.93000394105911255
    endloop
  endfacet
  facet normal 1 0 -0
    outer loop
      vertex -59.799999237060547 284.78070068359375 2.0819029808044434
      vertex -59.799999237060547 285.28359985351562 1.9044959545135498
      vertex -59.799999237060547 285.28680419921875 2.1044702529907227
    endloop
  endfacet
  facet normal 1 0 -0
    outer loop
      vertex -59.799999237060547 284.31973266601562 2.3130223751068115
      vertex -59.799999237060547 284.27447509765625 2.078378438949585
      vertex -59.799999237060547 284.78070068359375 2.0819029808044434
    endloop
  endfacet
  facet normal 1 0 -0
    outer loop
      vertex -59.799999237060547 285.28680419921875 2.1044702529907227
      vertex -59.799999237060547 284.31973266601562 2.3130223751068115
      vertex -59.799999237060547 284.78070068359375 2.0819029808044434
    endloop
  endfacet
  facet normal 1 0 -0
    outer loop
      vertex -59.799999237060547 285.28359985351562 1.9044959545135498
      vertex -59.799999237060547 284.78070068359375 2.0819029808044434
      vertex -59.799999237060547 284.7823486328125 1.8475854396820068
    endloop
  endfacet
  facet normal 1 0 0
    outer loop
      vertex -59.799999237060547 284.7823486328125 1.8475854396820068
      vertex -59.799999237060547 285.17138671875 1.4172499179840088
      vertex -59.799999237060547 285.28359985351562 1.9044959545135498
    endloop
  endfacet
  facet normal 1 0 0
    outer loop
      vertex -59.799999237060547 284.44686889648438 0.4392760694026947
      vertex -59.799999237060547 285.05917358398438 0.93000394105911255
      vertex -59.799999237060547 283.385498046875 0.92855226993560791
    endloop
  endfacet
  facet normal 1 0 -0
    outer loop
      vertex -59.799999237060547 285.05917358398438 0.93000394105911255
      vertex -59.799999237060547 283.32427978515625 1.4247921705245972
      vertex -59.799999237060547 283.385498046875 0.92855226993560791
    endloop
  endfacet
  facet normal 1 0 0
    outer loop
      vertex -59.799999237060547 283.94677734375 0.43579420447349548
      vertex -59.799999237060547 284.44686889648438 0.4392760694026947
      vertex -59.799999237060547 283.385498046875 0.92855226993560791
    endloop
  endfacet
  facet normal 1 -0 -0
    outer loop
      vertex -59.799999237060547 285.17138671875 1.4172499179840088
      vertex -59.799999237060547 284.276123046875 1.8440608978271484
      vertex -59.799999237060547 283.32427978515625 1.4247921705245972
    endloop
  endfacet
  facet normal 1 0 -0
    outer loop
      vertex -59.799999237060547 283.94677734375 0.43579420447349548
      vertex -59.799999237060547 283.385498046875 0.92855226993560791
      vertex -59.799999237060547 283.44671630859375 0.43231230974197388
    endloop
  endfacet
  facet normal 1 0 -0
    outer loop
      vertex -59.799999237060547 283.7698974609375 1.8405362367630005
      vertex -59.799999237060547 283.32427978515625 1.4247921705245972
      vertex -59.799999237060547 284.276123046875 1.8440608978271484
    endloop
  endfacet
  facet normal 1 0 -0
    outer loop
      vertex -59.799999237060547 283.26629638671875 2.1210062503814697
      vertex -59.799999237060547 283.26309204101562 1.921032190322876
      vertex -59.799999237060547 283.76828002929688 2.0748538970947266
    endloop
  endfacet
  facet normal 1 -0 -0
    outer loop
      vertex -59.799999237060547 283.7698974609375 1.8405362367630005
      vertex -59.799999237060547 283.76828002929688 2.0748538970947266
      vertex -59.799999237060547 283.26309204101562 1.921032190322876
    endloop
  endfacet
  facet normal 1 0 0
    outer loop
      vertex -59.799999237060547 283.76828002929688 2.0748538970947266
      vertex -59.799999237060547 284.31973266601562 2.3130223751068115
      vertex -59.799999237060547 283.26629638671875 2.1210062503814697
    endloop
  endfacet
  facet normal 1 0 -0
    outer loop
      vertex -59.799999237060547 283.26309204101562 1.921032190322876
      vertex -59.799999237060547 283.32427978515625 1.4247921705245972
      vertex -59.799999237060547 283.7698974609375 1.8405362367630005
    endloop
  endfacet
  facet normal 1 0 0
    outer loop
      vertex -59.799999237060547 284.27447509765625 2.078378438949585
      vertex -59.799999237060547 284.31973266601562 2.3130223751068115
      vertex -59.799999237060547 283.76828002929688 2.0748538970947266
    endloop
  endfacet
  facet normal -1 0 -0
    outer loop
      vertex -60 284.44686889648438 0.4392760694026947
      vertex -60 285.05917358398438 0.93000394105911255
      vertex -60 284.94696044921875 0.44275796413421631
    endloop
  endfacet
  facet normal -1 0 0
    outer loop
      vertex -60 284.3165283203125 2.1130483150482178
      vertex -60 285.05917358398438 0.93000394105911255
      vertex -60 284.44686889648438 0.4392760694026947
    endloop
  endfacet
  facet normal -1 0 0
    outer loop
      vertex -60 284.3165283203125 2.1130483150482178
      vertex -60 285.28359985351562 1.9044959545135498
      vertex -60 285.17138671875 1.4172499179840088
    endloop
  endfacet
  facet normal -1 -0 0
    outer loop
      vertex -60 285.05917358398438 0.93000394105911255
      vertex -60 284.3165283203125 2.1130483150482178
      vertex -60 285.17138671875 1.4172499179840088
    endloop
  endfacet
  facet normal -1 0 0
    outer loop
      vertex -60 284.3165283203125 2.1130483150482178
      vertex -60 284.44686889648438 0.4392760694026947
      vertex -60 283.94677734375 0.43579420447349548
    endloop
  endfacet
  facet normal -1 0 0
    outer loop
      vertex -60 283.385498046875 0.92855226993560791
      vertex -60 283.94677734375 0.43579420447349548
      vertex -60 283.44671630859375 0.43231230974197388
    endloop
  endfacet
  facet normal -1 0 0
    outer loop
      vertex -60 283.78982543945312 2.0170402526855469
      vertex -60 283.94677734375 0.43579420447349548
      vertex -60 283.385498046875 0.92855226993560791
    endloop
  endfacet
  facet normal -1 -0 0
    outer loop
      vertex -60 283.26309204101562 1.921032190322876
      vertex -60 283.78982543945312 2.0170402526855469
      vertex -60 283.32427978515625 1.4247921705245972
    endloop
  endfacet
  facet normal -1 -0 0
    outer loop
      vertex -60 283.385498046875 0.92855226993560791
      vertex -60 283.32427978515625 1.4247921705245972
      vertex -60 283.78982543945312 2.0170402526855469
    endloop
  endfacet
  facet normal -1 0 -0
    outer loop
      vertex -60 284.3165283203125 2.1130483150482178
      vertex -60 283.94677734375 0.43579420447349548
      vertex -60 283.78982543945312 2.0170402526855469
    endloop
  endfacet
  facet normal 0 -0.99987164352514646 0.016021750039317901
    outer loop
      vertex -59.799999237060547 283.26629638671875 2.1210062503814697
      vertex -60 283.26309204101562 1.921032190322876
      vertex -59.799999237060547 283.26309204101562 1.921032190322876
    endloop
  endfacet
  facet normal -0 -0.99987164352514646 0.016021750039317901
    outer loop
      vertex -60 283.26309204101562 1.921032190322876
      vertex -59.799999237060547 283.26629638671875 2.1210062503814697
      vertex -60.180000305175781 283.26629638671875 2.1210062503814697
    endloop
  endfacet
  facet normal 0 -0.99987164352514646 0.016021750039317901
    outer loop
      vertex -60.180000305175781 283.26629638671875 2.1210062503814697
      vertex -60.560001373291016 283.26629638671875 2.1210062503814697
      vertex -60 283.26309204101562 1.921032190322876
    endloop
  endfacet
  facet normal 0 -0.99987164352514646 0.016021750039317901
    outer loop
      vertex -60.939998626708984 283.26629638671875 2.1210062503814697
      vertex -61.319999694824219 283.26309204101562 1.921032190322876
      vertex -60.560001373291016 283.26629638671875 2.1210062503814697
    endloop
  endfacet
  facet normal 0 -0.99987164352514646 0.016021750039317901
    outer loop
      vertex -60 283.26309204101562 1.921032190322876
      vertex -60.560001373291016 283.26629638671875 2.1210062503814697
      vertex -61.319999694824219 283.26309204101562 1.921032190322876
    endloop
  endfacet
  facet normal 0 -0.99987164352514646 0.016021750039317901
    outer loop
      vertex -61.319999694824219 283.26309204101562 1.921032190322876
      vertex -60.939998626708984 283.26629638671875 2.1210062503814697
      vertex -61.319999694824219 283.26629638671875 2.1210062503814697
    endloop
  endfacet
  facet normal -1 0 -0
    outer loop
      vertex -61.319999694824219 283.26309204101562 1.921032190322876
      vertex -61.319999694824219 283.26629638671875 2.1210062503814697
      vertex -61.319999694824219 283.79302978515625 2.2170143127441406
    endloop
  endfacet
  facet normal -1 0 0
    outer loop
      vertex -61.319999694824219 283.26309204101562 1.921032190322876
      vertex -61.319999694824219 283.79302978515625 2.2170143127441406
      vertex -61.319999694824219 283.78982543945312 2.0170402526855469
    endloop
  endfacet
  facet normal -1 -0 0
    outer loop
      vertex -61.319999694824219 283.78982543945312 2.0170402526855469
      vertex -61.319999694824219 283.79302978515625 2.2170143127441406
      vertex -61.319999694824219 284.31973266601562 2.3130223751068115
    endloop
  endfacet
  facet normal -1 0 -0
    outer loop
      vertex -61.319999694824219 283.78982543945312 2.0170402526855469
      vertex -61.319999694824219 284.31973266601562 2.3130223751068115
      vertex -61.319999694824219 284.3165283203125 2.1130483150482178
    endloop
  endfacet
  facet normal -1 0 0
    outer loop
      vertex -61.319999694824219 284.3165283203125 2.1130483150482178
      vertex -61.319999694824219 285.28680419921875 2.1044702529907227
      vertex -61.319999694824219 285.28359985351562 1.9044959545135498
    endloop
  endfacet
  facet normal -1 -0 0
    outer loop
      vertex -61.319999694824219 284.31973266601562 2.3130223751068115
      vertex -61.319999694824219 284.80328369140625 2.2087464332580566
      vertex -61.319999694824219 284.3165283203125 2.1130483150482178
    endloop
  endfacet
  facet normal -1 -0 -0
    outer loop
      vertex -61.319999694824219 285.28680419921875 2.1044702529907227
      vertex -61.319999694824219 284.3165283203125 2.1130483150482178
      vertex -61.319999694824219 284.80328369140625 2.2087464332580566
    endloop
  endfacet
  facet normal -0 0.99987164383115246 -0.016021730942352146
    outer loop
      vertex -61.319999694824219 285.28680419921875 2.1044702529907227
      vertex -60.813331604003906 285.28680419921875 2.1044702529907227
      vertex -61.319999694824219 285.28359985351562 1.9044959545135498
    endloop
  endfacet
  facet normal 0 0.99987164383115246 -0.016021730942352146
    outer loop
      vertex -61.319999694824219 285.28359985351562 1.9044959545135498
      vertex -60.813331604003906 285.28680419921875 2.1044702529907227
      vertex -60.306667327880859 285.28680419921875 2.1044702529907227
    endloop
  endfacet
  facet normal 0 0.99987164383115246 -0.016021730942352146
    outer loop
      vertex -61.319999694824219 285.28359985351562 1.9044959545135498
      vertex -60.306667327880859 285.28680419921875 2.1044702529907227
      vertex -60 285.28359985351562 1.9044959545135498
    endloop
  endfacet
  facet normal 0 0.99987164383115246 -0.016021730942352146
    outer loop
      vertex -59.799999237060547 285.28680419921875 2.1044702529907227
      vertex -59.799999237060547 285.28359985351562 1.9044959545135498
      vertex -60 285.28359985351562 1.9044959545135498
    endloop
  endfacet
  facet normal -0 0.99987164383115246 -0.016021730942352146
    outer loop
      vertex -60 285.28359985351562 1.9044959545135498
      vertex -60.306667327880859 285.28680419921875 2.1044702529907227
      vertex -59.799999237060547 285.28680419921875 2.1044702529907227
    endloop
  endfacet
  facet normal 0 0.21080702770683063 0.97752769631832492
    outer loop
      vertex -59.799999237060547 284.31973266601562 2.3130223751068115
      vertex -59.799999237060547 285.28680419921875 2.1044702529907227
      vertex -60.306667327880859 285.28680419921875 2.1044702529907227
    endloop
  endfacet
  facet normal 0 0.21081361493053838 0.97752627573887685
    outer loop
      vertex -61.319999694824219 284.80328369140625 2.2087464332580566
      vertex -60.813331604003906 285.28680419921875 2.1044702529907227
      vertex -61.319999694824219 285.28680419921875 2.1044702529907227
    endloop
  endfacet
  facet normal 0 0.21081361493053838 0.97752627573887685
    outer loop
      vertex -60.813331604003906 285.28680419921875 2.1044702529907227
      vertex -61.319999694824219 284.80328369140625 2.2087464332580566
      vertex -60.306667327880859 285.28680419921875 2.1044702529907227
    endloop
  endfacet
  facet normal 3.7592266779172262e-06 0.2108060867009281 0.97752789924160666
    outer loop
      vertex -60.306667327880859 285.28680419921875 2.1044702529907227
      vertex -61.319999694824219 284.80328369140625 2.2087464332580566
      vertex -60.560001373291016 284.31973266601562 2.3130223751068115
    endloop
  endfacet
  facet normal -0 0.21080044087013644 0.97752911676786192
    outer loop
      vertex -60.560001373291016 284.31973266601562 2.3130223751068115
      vertex -61.319999694824219 284.80328369140625 2.2087464332580566
      vertex -61.319999694824219 284.31973266601562 2.3130223751068115
    endloop
  endfacet
  facet normal 0 0.21080702770683063 0.97752769631832492
    outer loop
      vertex -59.799999237060547 284.31973266601562 2.3130223751068115
      vertex -60.306667327880859 285.28680419921875 2.1044702529907227
      vertex -60.560001373291016 284.31973266601562 2.3130223751068115
    endloop
  endfacet
  facet normal -0 -0.17931635347911307 0.98379146437390563
    outer loop
      vertex -61.319999694824219 283.79302978515625 2.2170143127441406
      vertex -61.319999694824219 283.26629638671875 2.1210062503814697
      vertex -60.939998626708984 283.26629638671875 2.1210062503814697
    endloop
  endfacet
  facet normal -0 -0.17932138115399834 0.98379054796283871
    outer loop
      vertex -60.560001373291016 284.31973266601562 2.3130223751068115
      vertex -60.560001373291016 283.26629638671875 2.1210062503814697
      vertex -60.180000305175781 283.26629638671875 2.1210062503814697
    endloop
  endfacet
  facet normal 0 -0.17931635347911307 0.98379146437390563
    outer loop
      vertex -60.560001373291016 283.26629638671875 2.1210062503814697
      vertex -61.319999694824219 283.79302978515625 2.2170143127441406
      vertex -60.939998626708984 283.26629638671875 2.1210062503814697
    endloop
  endfacet
  facet normal 0 -0.1793264091061397 0.98378963147468557
    outer loop
      vertex -60.560001373291016 284.31973266601562 2.3130223751068115
      vertex -61.319999694824219 284.31973266601562 2.3130223751068115
      vertex -61.319999694824219 283.79302978515625 2.2170143127441406
    endloop
  endfacet
  facet normal -0 -0.17932138115399834 0.98379054796283871
    outer loop
      vertex -59.799999237060547 283.26629638671875 2.1210062503814697
      vertex -59.799999237060547 284.31973266601562 2.3130223751068115
      vertex -60.180000305175781 283.26629638671875 2.1210062503814697
    endloop
  endfacet
  facet normal 0 -0.17932138115399834 0.98379054796283871
    outer loop
      vertex -59.799999237060547 284.31973266601562 2.3130223751068115
      vertex -60.560001373291016 284.31973266601562 2.3130223751068115
      vertex -60.180000305175781 283.26629638671875 2.1210062503814697
    endloop
  endfacet
  facet normal -3.6003068057930554e-06 -0.17932138115283616 0.9837905479564627
    outer loop
      vertex -61.319999694824219 283.79302978515625 2.2170143127441406
      vertex -60.560001373291016 283.26629638671875 2.1210062503814697
      vertex -60.560001373291016 284.31973266601562 2.3130223751068115
    endloop
  endfacet
endsolid OBJECT
