solid OBJECT
  facet normal 0 1 -0
    outer loop
      vertex -60 281.79263305664062 1.3078466653823853
      vertex -60 281.79263305664062 1.9617700576782227
      vertex -59.799999237060547 281.79263305664062 1.9617700576782227
    endloop
  endfacet
  facet normal 0 1 -0
    outer loop
      vertex -60 281.79263305664062 1.3078466653823853
      vertex -59.799999237060547 281.79263305664062 1.9617700576782227
      vertex -59.799999237060547 281.79263305664062 1.3078466653823853
    endloop
  endfacet
  facet normal -0 1 -0
    outer loop
      vertex -59.799999237060547 281.79263305664062 0.65392333269119263
      vertex -60 281.79263305664062 0.65392333269119263
      vertex -60 281.79263305664062 1.3078466653823853
    endloop
  endfacet
  facet normal 0 1 0
    outer loop
      vertex -59.799999237060547 281.79263305664062 0.65392333269119263
      vertex -60 281.79263305664062 1.3078466653823853
      vertex -59.799999237060547 281.79263305664062 1.3078466653823853
    endloop
  endfacet
  facet normal 0 1 0
    outer loop
      vertex -60 281.79263305664062 0.65392333269119263
      vertex -59.799999237060547 281.79263305664062 0.65392333269119263
      vertex -59.799999237060547 281.79263305664062 0
    endloop
  endfacet
  facet normal -0 1 0
    outer loop
      vertex -60 281.79263305664062 0.65392333269119263
      vertex -59.799999237060547 281.79263305664062 0
      vertex -60 281.79263305664062 0
    endloop
  endfacet
  facet normal -1 -0 0
    outer loop
      vertex -60 280.81951904296875 1.9617700576782227
      vertex -60 280.72683715820312 0
      vertex -60 279.66107177734375 0.99000000953674316
    endloop
  endfacet
  facet normal -1 0 0
    outer loop
      vertex -60 279.66107177734375 0.99000000953674316
      vertex -60 280.72683715820312 0
      vertex -60 279.66107177734375 0
    endloop
  endfacet
  facet normal -1 0 -0
    outer loop
      vertex -60 280.81951904296875 1.9617700576782227
      vertex -60 279.66107177734375 0.99000000953674316
      vertex -60 279.846435546875 1.9617700576782227
    endloop
  endfacet
  facet normal -1 -0 -0
    outer loop
      vertex -60 281.79263305664062 1.3078466653823853
      vertex -60 280.81951904296875 1.9617700576782227
      vertex -60 281.79263305664062 1.9617700576782227
    endloop
  endfacet
  facet normal -1 0 0
    outer loop
      vertex -60 280.81951904296875 1.9617700576782227
      vertex -60 281.79263305664062 1.3078466653823853
      vertex -60 281.79263305664062 0.65392333269119263
    endloop
  endfacet
  facet normal -1 -0 0
    outer loop
      vertex -60 281.79263305664062 0.65392333269119263
      vertex -60 281.79263305664062 0
      vertex -60 280.72683715820312 0
    endloop
  endfacet
  facet normal -1 0 0
    outer loop
      vertex -60 280.81951904296875 1.9617700576782227
      vertex -60 281.79263305664062 0.65392333269119263
      vertex -60 280.72683715820312 0
    endloop
  endfacet
  facet normal 1 -0 0
    outer loop
      vertex -59.799999237060547 280.71954345703125 1.9617700576782227
      vertex -59.799999237060547 279.4610595703125 0.99000000953674316
      vertex -59.799999237060547 280.62686157226562 0
    endloop
  endfacet
  facet normal 1 -0 -0
    outer loop
      vertex -59.799999237060547 279.4610595703125 0.99000000953674316
      vertex -59.799999237060547 279.4610595703125 0
      vertex -59.799999237060547 280.62686157226562 0
    endloop
  endfacet
  facet normal 1 0 -0
    outer loop
      vertex -59.799999237060547 280.71954345703125 1.9617700576782227
      vertex -59.799999237060547 279.64642333984375 1.9617700576782227
      vertex -59.799999237060547 279.4610595703125 0.99000000953674316
    endloop
  endfacet
  facet normal 1 0 0
    outer loop
      vertex -59.799999237060547 281.79263305664062 1.3078466653823853
      vertex -59.799999237060547 281.79263305664062 1.9617700576782227
      vertex -59.799999237060547 280.71954345703125 1.9617700576782227
    endloop
  endfacet
  facet normal 1 0 0
    outer loop
      vertex -59.799999237060547 280.71954345703125 1.9617700576782227
      vertex -59.799999237060547 281.79263305664062 0.65392333269119263
      vertex -59.799999237060547 281.79263305664062 1.3078466653823853
    endloop
  endfacet
  facet normal 1 0 -0
    outer loop
      vertex -59.799999237060547 281.79263305664062 0.65392333269119263
      vertex -59.799999237060547 280.62686157226562 0
      vertex -59.799999237060547 281.79263305664062 0
    endloop
  endfacet
  facet normal 1 0 0
    outer loop
      vertex -59.799999237060547 280.71954345703125 1.9617700576782227
      vertex -59.799999237060547 280.62686157226562 0
      vertex -59.799999237060547 281.79263305664062 0.65392333269119263
    endloop
  endfacet
  facet normal 0 0.9822893496178523 -0.18737031148860431
    outer loop
      vertex -60 279.846435546875 1.9617700576782227
      vertex -60.659999847412109 279.66107177734375 0.99000000953674316
      vertex -61.319999694824219 279.66107177734375 0.99000000953674316
    endloop
  endfacet
  facet normal 0 0.9822893496178523 -0.18737031148860431
    outer loop
      vertex -60 279.846435546875 1.9617700576782227
      vertex -61.319999694824219 279.66107177734375 0.99000000953674316
      vertex -61.319999694824219 279.846435546875 1.9617700576782227
    endloop
  endfacet
  facet normal 0 0.9822893496178523 -0.18737031148860431
    outer loop
      vertex -60 279.846435546875 1.9617700576782227
      vertex -60 279.66107177734375 0.99000000953674316
      vertex -60.659999847412109 279.66107177734375 0.99000000953674316
    endloop
  endfacet
  facet normal 0 1 -0
    outer loop
      vertex -61.319999694824219 279.66107177734375 -1.7763568394002505e-15
      vertex -61.319999694824219 279.66107177734375 0.99000000953674316
      vertex -60.659999847412109 279.66107177734375 0.99000000953674316
    endloop
  endfacet
  facet normal 0 1 -0
    outer loop
      vertex -61.319999694824219 279.66107177734375 -1.7763568394002505e-15
      vertex -60.659999847412109 279.66107177734375 0.99000000953674316
      vertex -60 279.66107177734375 0
    endloop
  endfacet
  facet normal 0 1 0
    outer loop
      vertex -60 279.66107177734375 0
      vertex -60.659999847412109 279.66107177734375 0.99000000953674316
      vertex -60 279.66107177734375 0.99000000953674316
    endloop
  endfacet
  facet normal 0 -0 1
    outer loop
      vertex -60.560001373291016 279.64642333984375 1.9617700576782227
      vertex -61.319999694824219 279.846435546875 1.9617700576782227
      vertex -61.319999694824219 279.64642333984375 1.9617700576782227
    endloop
  endfacet
  facet normal -0 0 1
    outer loop
      vertex -60.560001373291016 279.64642333984375 1.9617700576782227
      vertex -59.799999237060547 279.64642333984375 1.9617700576782227
      vertex -60 279.846435546875 1.9617700576782227
    endloop
  endfacet
  facet normal -0 0 1
    outer loop
      vertex -59.799999237060547 280.71954345703125 1.9617700576782227
      vertex -60 280.81951904296875 1.9617700576782227
      vertex -60 279.846435546875 1.9617700576782227
    endloop
  endfacet
  facet normal 0 -0 1
    outer loop
      vertex -60 279.846435546875 1.9617700576782227
      vertex -61.319999694824219 279.846435546875 1.9617700576782227
      vertex -60.560001373291016 279.64642333984375 1.9617700576782227
    endloop
  endfacet
  facet normal -0 -0 1
    outer loop
      vertex -59.799999237060547 280.71954345703125 1.9617700576782227
      vertex -59.799999237060547 281.79263305664062 1.9617700576782227
      vertex -60 280.81951904296875 1.9617700576782227
    endloop
  endfacet
  facet normal 0 0 1
    outer loop
      vertex -60 281.79263305664062 1.9617700576782227
      vertex -60 280.81951904296875 1.9617700576782227
      vertex -59.799999237060547 281.79263305664062 1.9617700576782227
    endloop
  endfacet
  facet normal -0 -0 1
    outer loop
      vertex -59.799999237060547 279.64642333984375 1.9617700576782227
      vertex -59.799999237060547 280.71954345703125 1.9617700576782227
      vertex -60 279.846435546875 1.9617700576782227
    endloop
  endfacet
  facet normal -0 -0 -1
    outer loop
      vertex -60 281.79263305664062 0
      vertex -59.799999237060547 281.79263305664062 0
      vertex -59.799999237060547 280.62686157226562 0
    endloop
  endfacet
  facet normal 0 0 -1
    outer loop
      vertex -60 281.79263305664062 0
      vertex -59.799999237060547 280.62686157226562 0
      vertex -60 280.72683715820312 0
    endloop
  endfacet
  facet normal 0 0 -1
    outer loop
      vertex -60 280.72683715820312 0
      vertex -59.799999237060547 280.62686157226562 0
      vertex -59.799999237060547 279.4610595703125 0
    endloop
  endfacet
  facet normal 0 0 -1
    outer loop
      vertex -60 280.72683715820312 0
      vertex -59.799999237060547 279.4610595703125 0
      vertex -60 279.66107177734375 0
    endloop
  endfacet
  facet normal 1.1686583963874216e-15 0 -1
    outer loop
      vertex -60.560001373291016 279.4610595703125 -8.8817841970012523e-16
      vertex -61.319999694824219 279.4610595703125 -1.7763568394002505e-15
      vertex -61.319999694824219 279.66107177734375 -1.7763568394002505e-15
    endloop
  endfacet
  facet normal 1.1686525305118186e-15 1.1685856637588521e-15 -1
    outer loop
      vertex -59.799999237060547 279.4610595703125 0
      vertex -60.560001373291016 279.4610595703125 -8.8817841970012523e-16
      vertex -60 279.66107177734375 0
    endloop
  endfacet
  facet normal 1.3457251894568079e-15 6.7281126251946835e-16 -1
    outer loop
      vertex -60.560001373291016 279.4610595703125 -8.8817841970012523e-16
      vertex -61.319999694824219 279.66107177734375 -1.7763568394002505e-15
      vertex -60 279.66107177734375 0
    endloop
  endfacet
  facet normal 0 -1 0
    outer loop
      vertex -61.319999694824219 279.4610595703125 0.49500000476837158
      vertex -61.319999694824219 279.4610595703125 -1.7763568394002505e-15
      vertex -60.560001373291016 279.4610595703125 -8.8817841970012523e-16
    endloop
  endfacet
  facet normal 0 -1 0
    outer loop
      vertex -59.799999237060547 279.4610595703125 0
      vertex -59.799999237060547 279.4610595703125 0.99000000953674316
      vertex -60.560001373291016 279.4610595703125 0.99000000953674316
    endloop
  endfacet
  facet normal 0 -1 -0
    outer loop
      vertex -59.799999237060547 279.4610595703125 0
      vertex -60.560001373291016 279.4610595703125 0.99000000953674316
      vertex -60.560001373291016 279.4610595703125 -8.8817841970012523e-16
    endloop
  endfacet
  facet normal -0 -1 0
    outer loop
      vertex -60.560001373291016 279.4610595703125 0.99000000953674316
      vertex -61.319999694824219 279.4610595703125 0.99000000953674316
      vertex -61.319999694824219 279.4610595703125 0.49500000476837158
    endloop
  endfacet
  facet normal -0 -1 0
    outer loop
      vertex -61.319999694824219 279.4610595703125 0.49500000476837158
      vertex -60.560001373291016 279.4610595703125 -8.8817841970012523e-16
      vertex -60.560001373291016 279.4610595703125 0.99000000953674316
    endloop
  endfacet
  facet normal 0 -0.9822893496178523 0.18737031148860431
    outer loop
      vertex -61.319999694824219 279.55374145507812 1.4758850336074829
      vertex -61.319999694824219 279.4610595703125 0.99000000953674316
      vertex -60.560001373291016 279.4610595703125 0.99000000953674316
    endloop
  endfacet
  facet normal 0 -0.9822893496178523 0.18737031148860434
    outer loop
      vertex -59.799999237060547 279.4610595703125 0.99000000953674316
      vertex -59.799999237060547 279.64642333984375 1.9617700576782227
      vertex -60.560001373291016 279.64642333984375 1.9617700576782227
    endloop
  endfacet
  facet normal 0 -0.9822893496178523 0.18737031148860434
    outer loop
      vertex -59.799999237060547 279.4610595703125 0.99000000953674316
      vertex -60.560001373291016 279.64642333984375 1.9617700576782227
      vertex -60.560001373291016 279.4610595703125 0.99000000953674316
    endloop
  endfacet
  facet normal 0 -0.9822893496178523 0.18737031148860431
    outer loop
      vertex -60.560001373291016 279.64642333984375 1.9617700576782227
      vertex -61.319999694824219 279.64642333984375 1.9617700576782227
      vertex -61.319999694824219 279.55374145507812 1.4758850336074829
    endloop
  endfacet
  facet normal 0 -0.9822893496178523 0.18737031148860431
    outer loop
      vertex -61.319999694824219 279.55374145507812 1.4758850336074829
      vertex -60.560001373291016 279.4610595703125 0.99000000953674316
      vertex -60.560001373291016 279.64642333984375 1.9617700576782227
    endloop
  endfacet
  facet normal -1 -0 0
    outer loop
      vertex -61.319999694824219 279.55374145507812 1.4758850336074829
      vertex -61.319999694824219 279.846435546875 1.9617700576782227
      vertex -61.319999694824219 279.66107177734375 0.99000000953674316
    endloop
  endfacet
  facet normal -1 0 -0
    outer loop
      vertex -61.319999694824219 279.846435546875 1.9617700576782227
      vertex -61.319999694824219 279.55374145507812 1.4758850336074829
      vertex -61.319999694824219 279.64642333984375 1.9617700576782227
    endloop
  endfacet
  facet normal -1 0 0
    outer loop
      vertex -61.319999694824219 279.55374145507812 1.4758850336074829
      vertex -61.319999694824219 279.66107177734375 0.99000000953674316
      vertex -61.319999694824219 279.4610595703125 0.99000000953674316
    endloop
  endfacet
  facet normal -1 0 0
    outer loop
      vertex -61.319999694824219 279.4610595703125 0.49500000476837158
      vertex -61.319999694824219 279.66107177734375 -1.7763568394002505e-15
      vertex -61.319999694824219 279.4610595703125 -1.7763568394002505e-15
    endloop
  endfacet
  facet normal -1 -0 0
    outer loop
      vertex -61.319999694824219 279.4610595703125 0.49500000476837158
      vertex -61.319999694824219 279.4610595703125 0.99000000953674316
      vertex -61.319999694824219 279.66107177734375 0.99000000953674316
    endloop
  endfacet
  facet normal -1 -0 -0
    outer loop
      vertex -61.319999694824219 279.66107177734375 -1.7763568394002505e-15
      vertex -61.319999694824219 279.4610595703125 0.49500000476837158
      vertex -61.319999694824219 279.66107177734375 0.99000000953674316
    endloop
  endfacet
endsolid OBJECT
