solid OBJECT
  facet normal 0 -1 -0
    outer loop
      vertex -61.049999237060547 280.16107177734375 0.35137006640434265
      vertex -60.674999237060547 280.16107177734375 0.35137006640434265
      vertex -60.674999237060547 280.16107177734375 0.52705508470535278
    endloop
  endfacet
  facet normal 0 -1 -0
    outer loop
      vertex -61.049999237060547 280.16107177734375 0.35137006640434265
      vertex -60.674999237060547 280.16107177734375 0.52705508470535278
      vertex -61.049999237060547 280.16107177734375 0.52705508470535278
    endloop
  endfacet
  facet normal 0 -1 -0
    outer loop
      vertex -60.674999237060547 280.16107177734375 0.52705508470535278
      vertex -60.487499237060547 280.16107177734375 0.52705508470535278
      vertex -60.487499237060547 280.16107177734375 0.61489760875701904
    endloop
  endfacet
  facet normal 0 -1 -0
    outer loop
      vertex -60.674999237060547 280.16107177734375 0.52705508470535278
      vertex -60.487499237060547 280.16107177734375 0.61489760875701904
      vertex -60.674999237060547 280.16107177734375 0.61489760875701904
    endloop
  endfacet
  facet normal 0 -1 -0
    outer loop
      vertex -60.487499237060547 280.16107177734375 0.61489760875701904
      vertex -60.393749237060547 280.16107177734375 0.61489760875701904
      vertex -60.393749237060547 280.16107177734375 0.65881890058517456
    endloop
  endfacet
  facet normal 0 -1 -0
    outer loop
      vertex -60.487499237060547 280.16107177734375 0.61489760875701904
      vertex -60.393749237060547 280.16107177734375 0.65881890058517456
      vertex -60.487499237060547 280.16107177734375 0.65881890058517456
    endloop
  endfacet
  facet normal 0 -1 -0
    outer loop
      vertex -60.393749237060547 280.16107177734375 0.65881890058517456
      vertex -60.346874237060547 280.16107177734375 0.65881890058517456
      vertex -60.346874237060547 280.16107177734375 0.68077951669692993
    endloop
  endfacet
  facet normal 0 -1 -0
    outer loop
      vertex -60.393749237060547 280.16107177734375 0.65881890058517456
      vertex -60.346874237060547 280.16107177734375 0.68077951669692993
      vertex -60.393749237060547 280.16107177734375 0.68077951669692993
    endloop
  endfacet
  facet normal 0 -1 -0
    outer loop
      vertex -60.346874237060547 280.16107177734375 0.68077951669692993
      vertex -60.299999237060547 280.16107177734375 0.68383616209030151
      vertex -60.299999237060547 280.16107177734375 0.7027401328086853
    endloop
  endfacet
  facet normal -0 -1 0
    outer loop
      vertex -60.299999237060547 280.16107177734375 0.68383616209030151
      vertex -60.346874237060547 280.16107177734375 0.68077951669692993
      vertex -60.346874237060547 280.16107177734375 0.65881890058517456
    endloop
  endfacet
  facet normal -0 -1 0
    outer loop
      vertex -60.299999237060547 280.16107177734375 0.7027401328086853
      vertex -60.393749237060547 280.16107177734375 0.68077951669692993
      vertex -60.346874237060547 280.16107177734375 0.68077951669692993
    endloop
  endfacet
  facet normal 0 -1 0
    outer loop
      vertex -60.346874237060547 280.16107177734375 0.65881890058517456
      vertex -60.393749237060547 280.16107177734375 0.61489760875701904
      vertex -60.299999237060547 280.16107177734375 0.68383616209030151
    endloop
  endfacet
  facet normal -0 -1 -0
    outer loop
      vertex -60.5 280.16107177734375 0.7027401328086853
      vertex -60.393749237060547 280.16107177734375 0.68077951669692993
      vertex -60.299999237060547 280.16107177734375 0.7027401328086853
    endloop
  endfacet
  facet normal -0 -1 0
    outer loop
      vertex -60.5 280.16107177734375 0.7027401328086853
      vertex -61.150001525878906 280.16107177734375 0.7027401328086853
      vertex -60.674999237060547 280.16107177734375 0.61489760875701904
    endloop
  endfacet
  facet normal 0 -1 0
    outer loop
      vertex -61.150001525878906 280.16107177734375 0.7027401328086853
      vertex -61.799999237060547 280.16107177734375 0.7027401328086853
      vertex -61.049999237060547 280.16107177734375 0.52705508470535278
    endloop
  endfacet
  facet normal -0 -1 0
    outer loop
      vertex -60.346874237060547 280.16107177734375 0.65881890058517456
      vertex -60.393749237060547 280.16107177734375 0.65881890058517456
      vertex -60.393749237060547 280.16107177734375 0.61489760875701904
    endloop
  endfacet
  facet normal 0 -1 -0
    outer loop
      vertex -60.487499237060547 280.16107177734375 0.65881890058517456
      vertex -60.5 280.16107177734375 0.7027401328086853
      vertex -60.674999237060547 280.16107177734375 0.61489760875701904
    endloop
  endfacet
  facet normal 0 -1 0
    outer loop
      vertex -60.393749237060547 280.16107177734375 0.68077951669692993
      vertex -60.5 280.16107177734375 0.7027401328086853
      vertex -60.487499237060547 280.16107177734375 0.65881890058517456
    endloop
  endfacet
  facet normal 0 -1 -0
    outer loop
      vertex -60.487499237060547 280.16107177734375 0.65881890058517456
      vertex -60.393749237060547 280.16107177734375 0.65881890058517456
      vertex -60.393749237060547 280.16107177734375 0.68077951669692993
    endloop
  endfacet
  facet normal -0 -1 0
    outer loop
      vertex -60.393749237060547 280.16107177734375 0.61489760875701904
      vertex -60.299999237060547 280.16107177734375 -1.7763568394002505e-15
      vertex -60.299999237060547 280.16107177734375 0.68383616209030151
    endloop
  endfacet
  facet normal -0 -1 0
    outer loop
      vertex -60.487499237060547 280.16107177734375 0.65881890058517456
      vertex -60.674999237060547 280.16107177734375 0.61489760875701904
      vertex -60.487499237060547 280.16107177734375 0.61489760875701904
    endloop
  endfacet
  facet normal 0 -1 0
    outer loop
      vertex -60.299999237060547 280.16107177734375 -1.7763568394002505e-15
      vertex -60.487499237060547 280.16107177734375 0.52705508470535278
      vertex -60.674999237060547 280.16107177734375 0.35137006640434265
    endloop
  endfacet
  facet normal -0 -1 0
    outer loop
      vertex -60.393749237060547 280.16107177734375 0.61489760875701904
      vertex -60.487499237060547 280.16107177734375 0.61489760875701904
      vertex -60.487499237060547 280.16107177734375 0.52705508470535278
    endloop
  endfacet
  facet normal -0 -1 0
    outer loop
      vertex -60.487499237060547 280.16107177734375 0.52705508470535278
      vertex -60.299999237060547 280.16107177734375 -1.7763568394002505e-15
      vertex -60.393749237060547 280.16107177734375 0.61489760875701904
    endloop
  endfacet
  facet normal 0 -1 0
    outer loop
      vertex -60.299999237060547 280.16107177734375 -1.7763568394002505e-15
      vertex -60.674999237060547 280.16107177734375 0.35137006640434265
      vertex -60.5 280.16107177734375 -1.7763568394002505e-15
    endloop
  endfacet
  facet normal -0 -1 0
    outer loop
      vertex -60.487499237060547 280.16107177734375 0.52705508470535278
      vertex -60.674999237060547 280.16107177734375 0.52705508470535278
      vertex -60.674999237060547 280.16107177734375 0.35137006640434265
    endloop
  endfacet
  facet normal -0 -1 0
    outer loop
      vertex -60.674999237060547 280.16107177734375 0.61489760875701904
      vertex -61.049999237060547 280.16107177734375 0.52705508470535278
      vertex -60.674999237060547 280.16107177734375 0.52705508470535278
    endloop
  endfacet
  facet normal 0 -1 -0
    outer loop
      vertex -61.799999237060547 280.16107177734375 1.4210854715202004e-14
      vertex -61.150001525878906 280.16107177734375 6.2172489379008766e-15
      vertex -61.049999237060547 280.16107177734375 0.35137006640434265
    endloop
  endfacet
  facet normal 0 -1 0
    outer loop
      vertex -61.049999237060547 280.16107177734375 0.35137006640434265
      vertex -61.150001525878906 280.16107177734375 6.2172489379008766e-15
      vertex -60.5 280.16107177734375 -1.7763568394002505e-15
    endloop
  endfacet
  facet normal 0 -1 -0
    outer loop
      vertex -61.049999237060547 280.16107177734375 0.35137006640434265
      vertex -60.5 280.16107177734375 -1.7763568394002505e-15
      vertex -60.674999237060547 280.16107177734375 0.35137006640434265
    endloop
  endfacet
  facet normal 0 -1 0
    outer loop
      vertex -61.049999237060547 280.16107177734375 0.35137006640434265
      vertex -61.799999237060547 280.16107177734375 0.7027401328086853
      vertex -61.799999237060547 280.16107177734375 1.4210854715202004e-14
    endloop
  endfacet
  facet normal 0 -1 0
    outer loop
      vertex -61.049999237060547 280.16107177734375 0.52705508470535278
      vertex -61.799999237060547 280.16107177734375 0.7027401328086853
      vertex -61.049999237060547 280.16107177734375 0.35137006640434265
    endloop
  endfacet
  facet normal -0 -1 -0
    outer loop
      vertex -61.150001525878906 280.16107177734375 0.7027401328086853
      vertex -61.049999237060547 280.16107177734375 0.52705508470535278
      vertex -60.674999237060547 280.16107177734375 0.61489760875701904
    endloop
  endfacet
  facet normal -0 0.9822834753752222 -0.18740110459859899
    outer loop
      vertex -60.5 280.36105346679688 0.68383616209030151
      vertex -60.933334350585938 280.48910522460938 1.3550335168838501
      vertex -60.5 280.48910522460938 1.3550335168838501
    endloop
  endfacet
  facet normal -0 0.9822834753752222 -0.18740110459859899
    outer loop
      vertex -61.150001525878906 280.36105346679688 0.68383616209030151
      vertex -61.366664886474609 280.48910522460938 1.3550335168838501
      vertex -60.933334350585938 280.48910522460938 1.3550335168838501
    endloop
  endfacet
  facet normal 0 0.9822834753752222 -0.18740110459859899
    outer loop
      vertex -61.150001525878906 280.36105346679688 0.68383616209030151
      vertex -61.799999237060547 280.36105346679688 0.68383616209030151
      vertex -61.799999237060547 280.48910522460938 1.3550335168838501
    endloop
  endfacet
  facet normal -0 0.9822834753752222 -0.18740110459859899
    outer loop
      vertex -61.150001525878906 280.36105346679688 0.68383616209030151
      vertex -61.799999237060547 280.48910522460938 1.3550335168838501
      vertex -61.366664886474609 280.48910522460938 1.3550335168838501
    endloop
  endfacet
  facet normal 0 0.9822834753752222 -0.18740110459859899
    outer loop
      vertex -60.5 280.36105346679688 0.68383616209030151
      vertex -61.150001525878906 280.36105346679688 0.68383616209030151
      vertex -60.933334350585938 280.48910522460938 1.3550335168838501
    endloop
  endfacet
  facet normal 0 1 0
    outer loop
      vertex -61.150001525878906 280.36105346679688 0.68383616209030151
      vertex -60.5 280.36105346679688 0.68383616209030151
      vertex -60.5 280.36105346679688 8.8817841970012523e-15
    endloop
  endfacet
  facet normal -0 1 0
    outer loop
      vertex -61.150001525878906 280.36105346679688 0.68383616209030151
      vertex -60.5 280.36105346679688 8.8817841970012523e-15
      vertex -61.150001525878906 280.36105346679688 1.5987211554602254e-14
    endloop
  endfacet
  facet normal 0 1 0
    outer loop
      vertex -61.799999237060547 280.36105346679688 0.68383616209030151
      vertex -61.150001525878906 280.36105346679688 0.68383616209030151
      vertex -61.150001525878906 280.36105346679688 1.5987211554602254e-14
    endloop
  endfacet
  facet normal -0 1 0
    outer loop
      vertex -61.799999237060547 280.36105346679688 0.68383616209030151
      vertex -61.150001525878906 280.36105346679688 1.5987211554602254e-14
      vertex -61.799999237060547 280.36105346679688 2.3092638912203256e-14
    endloop
  endfacet
  facet normal -0 0.1873524279957843 0.98229276070023253
    outer loop
      vertex -61.799999237060547 280.29263305664062 1.3925065994262695
      vertex -61.366664886474609 280.29263305664062 1.3925065994262695
      vertex -61.366664886474609 280.48910522460938 1.3550335168838501
    endloop
  endfacet
  facet normal 0 0.1873524279957843 0.98229276070023253
    outer loop
      vertex -61.799999237060547 280.29263305664062 1.3925065994262695
      vertex -61.366664886474609 280.48910522460938 1.3550335168838501
      vertex -61.799999237060547 280.48910522460938 1.3550335168838501
    endloop
  endfacet
  facet normal 0 0.1873524279957843 0.98229276070023253
    outer loop
      vertex -60.933334350585938 280.48910522460938 1.3550335168838501
      vertex -61.366664886474609 280.48910522460938 1.3550335168838501
      vertex -61.366664886474609 280.29263305664062 1.3925065994262695
    endloop
  endfacet
  facet normal 0 0.1873524279957843 0.98229276070023253
    outer loop
      vertex -60.933334350585938 280.48910522460938 1.3550335168838501
      vertex -61.366664886474609 280.29263305664062 1.3925065994262695
      vertex -60.933334350585938 280.29263305664062 1.3925065994262695
    endloop
  endfacet
  facet normal -0 0.1873524279957843 0.98229276070023253
    outer loop
      vertex -60.933334350585938 280.29263305664062 1.3925065994262695
      vertex -60.5 280.29263305664062 1.3925065994262695
      vertex -60.5 280.48910522460938 1.3550335168838501
    endloop
  endfacet
  facet normal 0 0.1873524279957843 0.98229276070023253
    outer loop
      vertex -60.933334350585938 280.29263305664062 1.3925065994262695
      vertex -60.5 280.48910522460938 1.3550335168838501
      vertex -60.933334350585938 280.48910522460938 1.3550335168838501
    endloop
  endfacet
  facet normal -0 1 0
    outer loop
      vertex -60.299999237060547 281.79263305664062 0.46416887640953064
      vertex -60.299999237060547 281.79263305664062 -1.7763568394002505e-15
      vertex -60.5 281.79263305664062 0
    endloop
  endfacet
  facet normal -0 1 0
    outer loop
      vertex -60.299999237060547 281.79263305664062 0.46416887640953064
      vertex -60.5 281.79263305664062 0
      vertex -60.5 281.79263305664062 0.46416887640953064
    endloop
  endfacet
  facet normal 0 1 -0
    outer loop
      vertex -60.5 281.79263305664062 0.46416887640953064
      vertex -60.5 281.79263305664062 0.92833775281906128
      vertex -60.299999237060547 281.79263305664062 0.92833775281906128
    endloop
  endfacet
  facet normal 0 1 -0
    outer loop
      vertex -60.5 281.79263305664062 0.46416887640953064
      vertex -60.299999237060547 281.79263305664062 0.92833775281906128
      vertex -60.299999237060547 281.79263305664062 0.46416887640953064
    endloop
  endfacet
  facet normal -0 1 0
    outer loop
      vertex -60.299999237060547 281.79263305664062 1.3925065994262695
      vertex -60.299999237060547 281.79263305664062 0.92833775281906128
      vertex -60.5 281.79263305664062 0.92833775281906128
    endloop
  endfacet
  facet normal -0 1 0
    outer loop
      vertex -60.299999237060547 281.79263305664062 1.3925065994262695
      vertex -60.5 281.79263305664062 0.92833775281906128
      vertex -60.5 281.79263305664062 1.3925065994262695
    endloop
  endfacet
  facet normal -0 -0 1
    outer loop
      vertex -60.299999237060547 281.29263305664062 1.3925065994262695
      vertex -60.299999237060547 281.79263305664062 1.3925065994262695
      vertex -60.5 281.79263305664062 1.3925065994262695
    endloop
  endfacet
  facet normal -0 -0 1
    outer loop
      vertex -60.299999237060547 281.29263305664062 1.3925065994262695
      vertex -60.5 281.79263305664062 1.3925065994262695
      vertex -60.5 281.29263305664062 1.3925065994262695
    endloop
  endfacet
  facet normal 0 0 1
    outer loop
      vertex -60.5 281.29263305664062 1.3925065994262695
      vertex -60.5 280.79263305664062 1.3925065994262695
      vertex -60.299999237060547 280.79263305664062 1.3925065994262695
    endloop
  endfacet
  facet normal 0 0 1
    outer loop
      vertex -60.5 281.29263305664062 1.3925065994262695
      vertex -60.299999237060547 280.79263305664062 1.3925065994262695
      vertex -60.299999237060547 281.29263305664062 1.3925065994262695
    endloop
  endfacet
  facet normal -0 -0 1
    outer loop
      vertex -60.299999237060547 280.29263305664062 1.3925065994262695
      vertex -60.299999237060547 280.79263305664062 1.3925065994262695
      vertex -60.5 280.79263305664062 1.3925065994262695
    endloop
  endfacet
  facet normal -0 -0 1
    outer loop
      vertex -60.299999237060547 280.29263305664062 1.3925065994262695
      vertex -60.5 280.79263305664062 1.3925065994262695
      vertex -60.5 280.29263305664062 1.3925065994262695
    endloop
  endfacet
  facet normal 1 0 -0
    outer loop
      vertex -60.299999237060547 280.5689697265625 1.0443799495697021
      vertex -60.299999237060547 280.36502075195312 1.0443799495697021
      vertex -60.299999237060547 280.36502075195312 0.87031662464141846
    endloop
  endfacet
  facet normal 1 0 -0
    outer loop
      vertex -60.299999237060547 280.5689697265625 1.0443799495697021
      vertex -60.299999237060547 280.36502075195312 0.87031662464141846
      vertex -60.299999237060547 280.5689697265625 0.87031662464141846
    endloop
  endfacet
  facet normal 1 0 -0
    outer loop
      vertex -60.299999237060547 280.36502075195312 0.87031662464141846
      vertex -60.299999237060547 280.26303100585938 0.87031662464141846
      vertex -60.299999237060547 280.26303100585938 0.78328496217727661
    endloop
  endfacet
  facet normal 1 0 -0
    outer loop
      vertex -60.299999237060547 280.36502075195312 0.87031662464141846
      vertex -60.299999237060547 280.26303100585938 0.78328496217727661
      vertex -60.299999237060547 280.36502075195312 0.78328496217727661
    endloop
  endfacet
  facet normal 1 0 -0
    outer loop
      vertex -60.299999237060547 280.26303100585938 0.78328496217727661
      vertex -60.299999237060547 280.21206665039062 0.78328496217727661
      vertex -60.299999237060547 280.21206665039062 0.73976916074752808
    endloop
  endfacet
  facet normal 1 0 -0
    outer loop
      vertex -60.299999237060547 280.26303100585938 0.78328496217727661
      vertex -60.299999237060547 280.21206665039062 0.73976916074752808
      vertex -60.299999237060547 280.26303100585938 0.73976916074752808
    endloop
  endfacet
  facet normal 1 0 -0
    outer loop
      vertex -60.299999237060547 280.26303100585938 0.73976916074752808
      vertex -60.299999237060547 280.21206665039062 0.73976916074752808
      vertex -60.299999237060547 280.21206665039062 0.69625329971313477
    endloop
  endfacet
  facet normal 1 0 -0
    outer loop
      vertex -60.299999237060547 280.26303100585938 0.73976916074752808
      vertex -60.299999237060547 280.21206665039062 0.69625329971313477
      vertex -60.299999237060547 280.26303100585938 0.69625329971313477
    endloop
  endfacet
  facet normal 1 -0 -0
    outer loop
      vertex -60.299999237060547 280.26303100585938 0.73976916074752808
      vertex -60.299999237060547 280.26303100585938 0.69625329971313477
      vertex -60.299999237060547 280.36502075195312 0.69625329971313477
    endloop
  endfacet
  facet normal 1 0 -0
    outer loop
      vertex -60.299999237060547 280.36502075195312 0.78328496217727661
      vertex -60.299999237060547 280.26303100585938 0.78328496217727661
      vertex -60.299999237060547 280.26303100585938 0.73976916074752808
    endloop
  endfacet
  facet normal 1 0 0
    outer loop
      vertex -60.299999237060547 280.36502075195312 0.69625329971313477
      vertex -60.299999237060547 280.36502075195312 0.78328496217727661
      vertex -60.299999237060547 280.26303100585938 0.73976916074752808
    endloop
  endfacet
  facet normal 1 -0 -0
    outer loop
      vertex -60.299999237060547 280.36502075195312 0.78328496217727661
      vertex -60.299999237060547 280.36502075195312 0.69625329971313477
      vertex -60.299999237060547 280.5689697265625 0.69625329971313477
    endloop
  endfacet
  facet normal 1 0 -0
    outer loop
      vertex -60.299999237060547 280.5689697265625 0.87031662464141846
      vertex -60.299999237060547 280.36502075195312 0.87031662464141846
      vertex -60.299999237060547 280.36502075195312 0.78328496217727661
    endloop
  endfacet
  facet normal 1 0 0
    outer loop
      vertex -60.299999237060547 280.5689697265625 0.69625329971313477
      vertex -60.299999237060547 280.5689697265625 0.87031662464141846
      vertex -60.299999237060547 280.36502075195312 0.78328496217727661
    endloop
  endfacet
  facet normal 1 -0 -0
    outer loop
      vertex -60.299999237060547 280.5689697265625 0.87031662464141846
      vertex -60.299999237060547 280.5689697265625 0.69625329971313477
      vertex -60.299999237060547 280.97683715820312 0.69625329971313477
    endloop
  endfacet
  facet normal 1 0 -0
    outer loop
      vertex -60.299999237060547 280.97683715820312 1.0443799495697021
      vertex -60.299999237060547 280.5689697265625 1.0443799495697021
      vertex -60.299999237060547 280.5689697265625 0.87031662464141846
    endloop
  endfacet
  facet normal 1 0 0
    outer loop
      vertex -60.299999237060547 280.97683715820312 0.69625329971313477
      vertex -60.299999237060547 280.97683715820312 1.0443799495697021
      vertex -60.299999237060547 280.5689697265625 0.87031662464141846
    endloop
  endfacet
  facet normal 1 -0 -0
    outer loop
      vertex -60.299999237060547 280.5689697265625 0.52218997478485107
      vertex -60.299999237060547 280.5689697265625 0.34812664985656738
      vertex -60.299999237060547 280.97683715820312 0.34812664985656738
    endloop
  endfacet
  facet normal 1 0 -0
    outer loop
      vertex -60.299999237060547 280.97683715820312 0.69625329971313477
      vertex -60.299999237060547 280.5689697265625 0.69625329971313477
      vertex -60.299999237060547 280.5689697265625 0.52218997478485107
    endloop
  endfacet
  facet normal 1 0 0
    outer loop
      vertex -60.299999237060547 280.97683715820312 0.34812664985656738
      vertex -60.299999237060547 280.97683715820312 0.69625329971313477
      vertex -60.299999237060547 280.5689697265625 0.52218997478485107
    endloop
  endfacet
  facet normal 1 -0 -0
    outer loop
      vertex -60.299999237060547 280.36502075195312 0.60922163724899292
      vertex -60.299999237060547 280.36502075195312 0.52218997478485107
      vertex -60.299999237060547 280.5689697265625 0.52218997478485107
    endloop
  endfacet
  facet normal 1 0 -0
    outer loop
      vertex -60.299999237060547 280.5689697265625 0.69625329971313477
      vertex -60.299999237060547 280.36502075195312 0.69625329971313477
      vertex -60.299999237060547 280.36502075195312 0.60922163724899292
    endloop
  endfacet
  facet normal 1 0 0
    outer loop
      vertex -60.299999237060547 280.5689697265625 0.52218997478485107
      vertex -60.299999237060547 280.5689697265625 0.69625329971313477
      vertex -60.299999237060547 280.36502075195312 0.60922163724899292
    endloop
  endfacet
  facet normal 1 -0 -0
    outer loop
      vertex -60.299999237060547 280.26303100585938 0.65273749828338623
      vertex -60.299999237060547 280.26303100585938 0.60922163724899292
      vertex -60.299999237060547 280.36502075195312 0.60922163724899292
    endloop
  endfacet
  facet normal 1 0 -0
    outer loop
      vertex -60.299999237060547 280.36502075195312 0.69625329971313477
      vertex -60.299999237060547 280.26303100585938 0.69625329971313477
      vertex -60.299999237060547 280.26303100585938 0.65273749828338623
    endloop
  endfacet
  facet normal 1 0 0
    outer loop
      vertex -60.299999237060547 280.36502075195312 0.60922163724899292
      vertex -60.299999237060547 280.36502075195312 0.69625329971313477
      vertex -60.299999237060547 280.26303100585938 0.65273749828338623
    endloop
  endfacet
  facet normal 1 0 -0
    outer loop
      vertex -60.299999237060547 280.26303100585938 0.69625329971313477
      vertex -60.299999237060547 280.21206665039062 0.69625329971313477
      vertex -60.299999237060547 280.21206665039062 0.65273749828338623
    endloop
  endfacet
  facet normal 1 0 -0
    outer loop
      vertex -60.299999237060547 280.26303100585938 0.69625329971313477
      vertex -60.299999237060547 280.21206665039062 0.65273749828338623
      vertex -60.299999237060547 280.26303100585938 0.65273749828338623
    endloop
  endfacet
  facet normal 1 0 -0
    outer loop
      vertex -60.299999237060547 280.26303100585938 0.65273749828338623
      vertex -60.299999237060547 280.21206665039062 0.65273749828338623
      vertex -60.299999237060547 280.21206665039062 0.60922163724899292
    endloop
  endfacet
  facet normal 1 0 -0
    outer loop
      vertex -60.299999237060547 280.26303100585938 0.65273749828338623
      vertex -60.299999237060547 280.21206665039062 0.60922163724899292
      vertex -60.299999237060547 280.26303100585938 0.60922163724899292
    endloop
  endfacet
  facet normal 1 0 -0
    outer loop
      vertex -60.299999237060547 280.36502075195312 0.60922163724899292
      vertex -60.299999237060547 280.26303100585938 0.60922163724899292
      vertex -60.299999237060547 280.26303100585938 0.52218997478485107
    endloop
  endfacet
  facet normal 1 0 -0
    outer loop
      vertex -60.299999237060547 280.36502075195312 0.60922163724899292
      vertex -60.299999237060547 280.26303100585938 0.52218997478485107
      vertex -60.299999237060547 280.36502075195312 0.52218997478485107
    endloop
  endfacet
  facet normal 1 0 -0
    outer loop
      vertex -60.299999237060547 280.5689697265625 0.52218997478485107
      vertex -60.299999237060547 280.36502075195312 0.52218997478485107
      vertex -60.299999237060547 280.36502075195312 0.34812664985656738
    endloop
  endfacet
  facet normal 1 0 -0
    outer loop
      vertex -60.299999237060547 280.5689697265625 0.52218997478485107
      vertex -60.299999237060547 280.36502075195312 0.34812664985656738
      vertex -60.299999237060547 280.5689697265625 0.34812664985656738
    endloop
  endfacet
  facet normal 1 0 0
    outer loop
      vertex -60.299999237060547 280.16107177734375 0.68383616209030151
      vertex -60.299999237060547 280.16107177734375 -1.7763568394002505e-15
      vertex -60.299999237060547 280.21206665039062 0.60922163724899292
    endloop
  endfacet
  facet normal 1 0 0
    outer loop
      vertex -60.299999237060547 280.26303100585938 0.52218997478485107
      vertex -60.299999237060547 280.21206665039062 0.60922163724899292
      vertex -60.299999237060547 280.16107177734375 -1.7763568394002505e-15
    endloop
  endfacet
  facet normal 1 -0 0
    outer loop
      vertex -60.299999237060547 280.21206665039062 0.65273749828338623
      vertex -60.299999237060547 280.16107177734375 0.68383616209030151
      vertex -60.299999237060547 280.21206665039062 0.60922163724899292
    endloop
  endfacet
  facet normal 1 -0 0
    outer loop
      vertex -60.299999237060547 280.16107177734375 -1.7763568394002505e-15
      vertex -60.299999237060547 280.36502075195312 0.34812664985656738
      vertex -60.299999237060547 280.26303100585938 0.52218997478485107
    endloop
  endfacet
  facet normal 1 -0 -0
    outer loop
      vertex -60.299999237060547 280.26303100585938 0.52218997478485107
      vertex -60.299999237060547 280.26303100585938 0.60922163724899292
      vertex -60.299999237060547 280.21206665039062 0.60922163724899292
    endloop
  endfacet
  facet normal 1 0 -0
    outer loop
      vertex -60.299999237060547 280.36502075195312 0.34812664985656738
      vertex -60.299999237060547 280.16107177734375 -1.7763568394002505e-15
      vertex -60.299999237060547 280.5689697265625 0.34812664985656738
    endloop
  endfacet
  facet normal 1 0 -0
    outer loop
      vertex -60.299999237060547 280.21206665039062 0.69625329971313477
      vertex -60.299999237060547 280.16107177734375 0.68383616209030151
      vertex -60.299999237060547 280.21206665039062 0.65273749828338623
    endloop
  endfacet
  facet normal 1 -0 -0
    outer loop
      vertex -60.299999237060547 280.16461181640625 0.72130930423736572
      vertex -60.299999237060547 280.16107177734375 0.7027401328086853
      vertex -60.299999237060547 280.21206665039062 0.69625329971313477
    endloop
  endfacet
  facet normal 1 -0 0
    outer loop
      vertex -60.299999237060547 280.16107177734375 0.68383616209030151
      vertex -60.299999237060547 280.21206665039062 0.69625329971313477
      vertex -60.299999237060547 280.16107177734375 0.7027401328086853
    endloop
  endfacet
  facet normal 1 0 0
    outer loop
      vertex -60.299999237060547 280.21206665039062 0.78328496217727661
      vertex -60.299999237060547 280.16461181640625 0.72130930423736572
      vertex -60.299999237060547 280.21206665039062 0.73976916074752808
    endloop
  endfacet
  facet normal 1 0 0
    outer loop
      vertex -60.299999237060547 280.21206665039062 0.69625329971313477
      vertex -60.299999237060547 280.21206665039062 0.73976916074752808
      vertex -60.299999237060547 280.16461181640625 0.72130930423736572
    endloop
  endfacet
  facet normal 1 0 0
    outer loop
      vertex -60.299999237060547 280.26303100585938 0.87031662464141846
      vertex -60.299999237060547 280.21206665039062 0.78328496217727661
      vertex -60.299999237060547 280.26303100585938 0.78328496217727661
    endloop
  endfacet
  facet normal 1 -0 0
    outer loop
      vertex -60.299999237060547 280.26303100585938 0.87031662464141846
      vertex -60.299999237060547 280.29263305664062 1.3925065994262695
      vertex -60.299999237060547 280.16461181640625 0.72130930423736572
    endloop
  endfacet
  facet normal 1 0 0
    outer loop
      vertex -60.299999237060547 280.29263305664062 1.3925065994262695
      vertex -60.299999237060547 280.26303100585938 0.87031662464141846
      vertex -60.299999237060547 280.36502075195312 1.0443799495697021
    endloop
  endfacet
  facet normal 1 0 0
    outer loop
      vertex -60.299999237060547 280.21206665039062 0.78328496217727661
      vertex -60.299999237060547 280.26303100585938 0.87031662464141846
      vertex -60.299999237060547 280.16461181640625 0.72130930423736572
    endloop
  endfacet
  facet normal 1 -0 0
    outer loop
      vertex -60.299999237060547 280.36502075195312 0.52218997478485107
      vertex -60.299999237060547 280.26303100585938 0.52218997478485107
      vertex -60.299999237060547 280.36502075195312 0.34812664985656738
    endloop
  endfacet
  facet normal 1 0 0
    outer loop
      vertex -60.299999237060547 280.97683715820312 -1.7763568394002505e-15
      vertex -60.299999237060547 280.97683715820312 0.34812664985656738
      vertex -60.299999237060547 280.5689697265625 0.34812664985656738
    endloop
  endfacet
  facet normal 1 0 0
    outer loop
      vertex -60.299999237060547 280.97683715820312 0.34812664985656738
      vertex -60.299999237060547 281.79263305664062 -1.7763568394002505e-15
      vertex -60.299999237060547 281.79263305664062 0.46416887640953064
    endloop
  endfacet
  facet normal 1 0 0
    outer loop
      vertex -60.299999237060547 281.79263305664062 0.46416887640953064
      vertex -60.299999237060547 281.79263305664062 0.92833775281906128
      vertex -60.299999237060547 280.97683715820312 0.69625329971313477
    endloop
  endfacet
  facet normal 1 0 -0
    outer loop
      vertex -60.299999237060547 281.79263305664062 0.46416887640953064
      vertex -60.299999237060547 280.97683715820312 0.69625329971313477
      vertex -60.299999237060547 280.97683715820312 0.34812664985656738
    endloop
  endfacet
  facet normal 1 0 -0
    outer loop
      vertex -60.299999237060547 281.79263305664062 -1.7763568394002505e-15
      vertex -60.299999237060547 280.97683715820312 0.34812664985656738
      vertex -60.299999237060547 280.97683715820312 -1.7763568394002505e-15
    endloop
  endfacet
  facet normal 1 -0 -0
    outer loop
      vertex -60.299999237060547 280.97683715820312 -1.7763568394002505e-15
      vertex -60.299999237060547 280.5689697265625 0.34812664985656738
      vertex -60.299999237060547 280.16107177734375 -1.7763568394002505e-15
    endloop
  endfacet
  facet normal 1 0 -0
    outer loop
      vertex -60.299999237060547 280.26303100585938 0.87031662464141846
      vertex -60.299999237060547 280.36502075195312 0.87031662464141846
      vertex -60.299999237060547 280.36502075195312 1.0443799495697021
    endloop
  endfacet
  facet normal 1 0 -0
    outer loop
      vertex -60.299999237060547 280.79263305664062 1.3925065994262695
      vertex -60.299999237060547 280.29263305664062 1.3925065994262695
      vertex -60.299999237060547 280.36502075195312 1.0443799495697021
    endloop
  endfacet
  facet normal 1 0 -0
    outer loop
      vertex -60.299999237060547 280.79263305664062 1.3925065994262695
      vertex -60.299999237060547 280.36502075195312 1.0443799495697021
      vertex -60.299999237060547 280.5689697265625 1.0443799495697021
    endloop
  endfacet
  facet normal 1 -0 -0
    outer loop
      vertex -60.299999237060547 280.97683715820312 1.0443799495697021
      vertex -60.299999237060547 280.79263305664062 1.3925065994262695
      vertex -60.299999237060547 280.5689697265625 1.0443799495697021
    endloop
  endfacet
  facet normal 1 -0 -0
    outer loop
      vertex -60.299999237060547 281.29263305664062 1.3925065994262695
      vertex -60.299999237060547 280.97683715820312 1.0443799495697021
      vertex -60.299999237060547 281.79263305664062 0.92833775281906128
    endloop
  endfacet
  facet normal 1 0 0
    outer loop
      vertex -60.299999237060547 281.79263305664062 0.92833775281906128
      vertex -60.299999237060547 281.79263305664062 1.3925065994262695
      vertex -60.299999237060547 281.29263305664062 1.3925065994262695
    endloop
  endfacet
  facet normal 1 0 0
    outer loop
      vertex -60.299999237060547 280.79263305664062 1.3925065994262695
      vertex -60.299999237060547 280.97683715820312 1.0443799495697021
      vertex -60.299999237060547 281.29263305664062 1.3925065994262695
    endloop
  endfacet
  facet normal 1 0 -0
    outer loop
      vertex -60.299999237060547 280.97683715820312 1.0443799495697021
      vertex -60.299999237060547 280.97683715820312 0.69625329971313477
      vertex -60.299999237060547 281.79263305664062 0.92833775281906128
    endloop
  endfacet
  facet normal -1 -0 0
    outer loop
      vertex -60.5 281.04263305664062 1.0443799495697021
      vertex -60.5 281.04263305664062 0.69625329971313477
      vertex -60.5 280.66763305664062 0.69625329971313477
    endloop
  endfacet
  facet normal -1 0 -0
    outer loop
      vertex -60.5 281.04263305664062 1.0443799495697021
      vertex -60.5 280.66763305664062 0.69625329971313477
      vertex -60.5 280.66763305664062 1.0443799495697021
    endloop
  endfacet
  facet normal -1 0 -0
    outer loop
      vertex -60.5 280.66763305664062 0.69625329971313477
      vertex -60.5 280.36105346679688 8.8817841970012523e-15
      vertex -60.5 280.36105346679688 0.68383616209030151
    endloop
  endfacet
  facet normal -1 -0 0
    outer loop
      vertex -60.5 280.36105346679688 8.8817841970012523e-15
      vertex -60.5 280.66763305664062 0.69625329971313477
      vertex -60.5 281.04263305664062 0.69625329971313477
    endloop
  endfacet
  facet normal -1 0 0
    outer loop
      vertex -60.5 280.36105346679688 8.8817841970012523e-15
      vertex -60.5 281.04263305664062 0.69625329971313477
      vertex -60.5 281.07684326171875 4.4408920985006262e-15
    endloop
  endfacet
  facet normal -1 0 0
    outer loop
      vertex -60.5 280.66763305664062 1.0443799495697021
      vertex -60.5 280.66763305664062 0.69625329971313477
      vertex -60.5 280.36105346679688 0.68383616209030151
    endloop
  endfacet
  facet normal -1 0 -0
    outer loop
      vertex -60.5 280.79263305664062 1.3925065994262695
      vertex -60.5 280.48910522460938 1.3550335168838501
      vertex -60.5 280.29263305664062 1.3925065994262695
    endloop
  endfacet
  facet normal -1 -0 0
    outer loop
      vertex -60.5 280.48910522460938 1.3550335168838501
      vertex -60.5 280.79263305664062 1.3925065994262695
      vertex -60.5 280.66763305664062 1.0443799495697021
    endloop
  endfacet
  facet normal -1 -0 0
    outer loop
      vertex -60.5 280.66763305664062 1.0443799495697021
      vertex -60.5 280.79263305664062 1.3925065994262695
      vertex -60.5 281.04263305664062 1.0443799495697021
    endloop
  endfacet
  facet normal -1 0 0
    outer loop
      vertex -60.5 280.48910522460938 1.3550335168838501
      vertex -60.5 280.66763305664062 1.0443799495697021
      vertex -60.5 280.36105346679688 0.68383616209030151
    endloop
  endfacet
  facet normal -1 0 -0
    outer loop
      vertex -60.5 281.79263305664062 0.46416887640953064
      vertex -60.5 281.07684326171875 4.4408920985006262e-15
      vertex -60.5 281.04263305664062 0.69625329971313477
    endloop
  endfacet
  facet normal -1 0 0
    outer loop
      vertex -60.5 281.07684326171875 4.4408920985006262e-15
      vertex -60.5 281.79263305664062 0.46416887640953064
      vertex -60.5 281.79263305664062 0
    endloop
  endfacet
  facet normal -1 0 0
    outer loop
      vertex -60.5 281.79263305664062 0.92833775281906128
      vertex -60.5 281.79263305664062 0.46416887640953064
      vertex -60.5 281.04263305664062 0.69625329971313477
    endloop
  endfacet
  facet normal -1 0 0
    outer loop
      vertex -60.5 280.79263305664062 1.3925065994262695
      vertex -60.5 281.29263305664062 1.3925065994262695
      vertex -60.5 281.04263305664062 1.0443799495697021
    endloop
  endfacet
  facet normal -1 -0 -0
    outer loop
      vertex -60.5 281.79263305664062 0.92833775281906128
      vertex -60.5 281.04263305664062 1.0443799495697021
      vertex -60.5 281.29263305664062 1.3925065994262695
    endloop
  endfacet
  facet normal -1 0 0
    outer loop
      vertex -60.5 281.29263305664062 1.3925065994262695
      vertex -60.5 281.79263305664062 1.3925065994262695
      vertex -60.5 281.79263305664062 0.92833775281906128
    endloop
  endfacet
  facet normal -1 0 -0
    outer loop
      vertex -60.5 281.79263305664062 0.92833775281906128
      vertex -60.5 281.04263305664062 0.69625329971313477
      vertex -60.5 281.04263305664062 1.0443799495697021
    endloop
  endfacet
  facet normal 0 -0.98231615131464423 0.18722974888191432
    outer loop
      vertex -61.049999237060547 280.1939697265625 0.87518173456192017
      vertex -60.674999237060547 280.1939697265625 0.87518173456192017
      vertex -60.674999237060547 280.22683715820312 1.0476233959197998
    endloop
  endfacet
  facet normal 0 -0.98231615131464434 0.18722974888191432
    outer loop
      vertex -61.049999237060547 280.1939697265625 0.87518173456192017
      vertex -60.674999237060547 280.22683715820312 1.0476233959197998
      vertex -61.049999237060547 280.22683715820312 1.0476233959197998
    endloop
  endfacet
  facet normal 0 -0.98228415296981675 0.18739755287721738
    outer loop
      vertex -60.674999237060547 280.17752075195312 0.78896093368530273
      vertex -60.487499237060547 280.17752075195312 0.78896093368530273
      vertex -60.487499237060547 280.1939697265625 0.87518173456192017
    endloop
  endfacet
  facet normal -1.3631931041893874e-17 -0.98228415296981675 0.18739755287721738
    outer loop
      vertex -60.674999237060547 280.17752075195312 0.78896093368530273
      vertex -60.487499237060547 280.1939697265625 0.87518173456192017
      vertex -60.674999237060547 280.1939697265625 0.87518173456192017
    endloop
  endfacet
  facet normal 0 -0.98222007649156151 0.1877331119885651
    outer loop
      vertex -60.487499237060547 280.16928100585938 0.74585056304931641
      vertex -60.393749237060547 280.16928100585938 0.74585056304931641
      vertex -60.393749237060547 280.17752075195312 0.78896093368530273
    endloop
  endfacet
  facet normal 0 -0.9822200764915614 0.1877331119885651
    outer loop
      vertex -60.487499237060547 280.16928100585938 0.74585056304931641
      vertex -60.393749237060547 280.17752075195312 0.78896093368530273
      vertex -60.487499237060547 280.17752075195312 0.78896093368530273
    endloop
  endfacet
  facet normal 0 -0.98247574377013769 0.18639048501282116
    outer loop
      vertex -60.393749237060547 280.16519165039062 0.72429531812667847
      vertex -60.346874237060547 280.16519165039062 0.72429531812667847
      vertex -60.346874237060547 280.16928100585938 0.74585056304931641
    endloop
  endfacet
  facet normal 0 -0.98247574377013769 0.18639048501282116
    outer loop
      vertex -60.393749237060547 280.16519165039062 0.72429531812667847
      vertex -60.346874237060547 280.16928100585938 0.74585056304931641
      vertex -60.393749237060547 280.16928100585938 0.74585056304931641
    endloop
  endfacet
  facet normal 0 -0.98228415296981675 0.18739755287721735
    outer loop
      vertex -60.674999237060547 280.22683715820312 1.0476233959197998
      vertex -60.299999237060547 280.29263305664062 1.3925065994262695
      vertex -60.5 280.29263305664062 1.3925065994262695
    endloop
  endfacet
  facet normal 0 -0.98231615131464423 0.18722974888191432
    outer loop
      vertex -60.674999237060547 280.1939697265625 0.87518173456192017
      vertex -60.487499237060547 280.1939697265625 0.87518173456192017
      vertex -60.674999237060547 280.22683715820312 1.0476233959197998
    endloop
  endfacet
  facet normal 7.9969563745406063e-05 -0.98230015232663526 0.18731365231594316
    outer loop
      vertex -60.299999237060547 280.29263305664062 1.3925065994262695
      vertex -60.674999237060547 280.22683715820312 1.0476233959197998
      vertex -60.487499237060547 280.1939697265625 0.87518173456192017
    endloop
  endfacet
  facet normal -3.9984459764704385e-05 -0.98229215426476724 0.18735560325521564
    outer loop
      vertex -60.299999237060547 280.29263305664062 1.3925065994262695
      vertex -60.487499237060547 280.1939697265625 0.87518173456192017
      vertex -60.393749237060547 280.17752075195312 0.78896093368530273
    endloop
  endfacet
  facet normal -5.6153077622119469e-05 -0.98229169128560112 0.18735802645764807
    outer loop
      vertex -60.393749237060547 280.17752075195312 0.78896093368530273
      vertex -60.299999237060547 280.16461181640625 0.72130930423736572
      vertex -60.299999237060547 280.29263305664062 1.3925065994262695
    endloop
  endfacet
  facet normal 0 -0.98228415296981675 0.18739755287721738
    outer loop
      vertex -60.933334350585938 280.29263305664062 1.3925065994262695
      vertex -61.049999237060547 280.22683715820312 1.0476233959197998
      vertex -60.674999237060547 280.22683715820312 1.0476233959197998
    endloop
  endfacet
  facet normal 0 -0.98228415296981675 0.18739755287721735
    outer loop
      vertex -60.933334350585938 280.29263305664062 1.3925065994262695
      vertex -60.674999237060547 280.22683715820312 1.0476233959197998
      vertex -60.5 280.29263305664062 1.3925065994262695
    endloop
  endfacet
  facet normal 0 -0.98228415296981675 0.18739755287721735
    outer loop
      vertex -61.049999237060547 280.22683715820312 1.0476233959197998
      vertex -60.933334350585938 280.29263305664062 1.3925065994262695
      vertex -61.366664886474609 280.29263305664062 1.3925065994262695
    endloop
  endfacet
  facet normal 0 -0.98228415296981675 0.18739755287721735
    outer loop
      vertex -61.049999237060547 280.22683715820312 1.0476233959197998
      vertex -61.366664886474609 280.29263305664062 1.3925065994262695
      vertex -61.799999237060547 280.29263305664062 1.3925065994262695
    endloop
  endfacet
  facet normal -0 -0.98228415296981675 0.18739755287721738
    outer loop
      vertex -60.674999237060547 280.1939697265625 0.87518173456192017
      vertex -61.049999237060547 280.1939697265625 0.87518173456192017
      vertex -60.674999237060547 280.17752075195312 0.78896093368530273
    endloop
  endfacet
  facet normal -1.999222989432974e-05 -0.9822921548536846 0.18735560336754167
    outer loop
      vertex -61.799999237060547 280.16107177734375 0.7027401328086853
      vertex -61.049999237060547 280.22683715820312 1.0476233959197998
      vertex -61.799999237060547 280.29263305664062 1.3925065994262695
    endloop
  endfacet
  facet normal 3.9985426173191596e-05 -0.98231615052936394 0.18722974873223966
    outer loop
      vertex -61.049999237060547 280.1939697265625 0.87518173456192017
      vertex -61.049999237060547 280.22683715820312 1.0476233959197998
      vertex -61.799999237060547 280.16107177734375 0.7027401328086853
    endloop
  endfacet
  facet normal 0 -0.98228415296981664 0.18739755287721732
    outer loop
      vertex -60.393749237060547 280.17752075195312 0.78896093368530273
      vertex -60.487499237060547 280.1939697265625 0.87518173456192017
      vertex -60.487499237060547 280.17752075195312 0.78896093368530273
    endloop
  endfacet
  facet normal -0.00027964261259680448 -0.98247570535533979 0.1863904777249539
    outer loop
      vertex -60.299999237060547 280.16461181640625 0.72130930423736572
      vertex -60.346874237060547 280.16928100585938 0.74585056304931641
      vertex -60.346874237060547 280.16519165039062 0.72429531812667847
    endloop
  endfacet
  facet normal 0 -0.9822200764915614 0.1877331119885651
    outer loop
      vertex -60.393749237060547 280.16519165039062 0.72429531812667847
      vertex -60.299999237060547 280.16107177734375 0.7027401328086853
      vertex -60.346874237060547 280.16519165039062 0.72429531812667847
    endloop
  endfacet
  facet normal -0.00022167868276826456 -0.98230883434282645 0.18726800268759017
    outer loop
      vertex -60.299999237060547 280.16461181640625 0.72130930423736572
      vertex -60.346874237060547 280.16519165039062 0.72429531812667847
      vertex -60.299999237060547 280.16107177734375 0.7027401328086853
    endloop
  endfacet
  facet normal 0 -0.98222007649156151 0.1877331119885651
    outer loop
      vertex -60.5 280.16107177734375 0.7027401328086853
      vertex -60.299999237060547 280.16107177734375 0.7027401328086853
      vertex -60.393749237060547 280.16519165039062 0.72429531812667847
    endloop
  endfacet
  facet normal 0.0010416085132939664 -0.98201009589015031 0.18882554546862201
    outer loop
      vertex -60.299999237060547 280.16461181640625 0.72130930423736572
      vertex -60.393749237060547 280.17752075195312 0.78896093368530273
      vertex -60.346874237060547 280.16928100585938 0.74585056304931641
    endloop
  endfacet
  facet normal 0 -0.98247574377013769 0.18639048501282116
    outer loop
      vertex -60.487499237060547 280.16928100585938 0.74585056304931641
      vertex -60.393749237060547 280.16519165039062 0.72429531812667847
      vertex -60.393749237060547 280.16928100585938 0.74585056304931641
    endloop
  endfacet
  facet normal 0 -0.9822200764915614 0.1877331119885651
    outer loop
      vertex -60.674999237060547 280.17752075195312 0.78896093368530273
      vertex -60.487499237060547 280.16928100585938 0.74585056304931641
      vertex -60.487499237060547 280.17752075195312 0.78896093368530273
    endloop
  endfacet
  facet normal -0.00014994839625218225 -0.98234012111183944 0.18710388550069004
    outer loop
      vertex -60.5 280.16107177734375 0.7027401328086853
      vertex -60.487499237060547 280.16928100585938 0.74585056304931641
      vertex -60.674999237060547 280.17752075195312 0.78896093368530273
    endloop
  endfacet
  facet normal 0 -0.98228415296981675 0.18739755287721735
    outer loop
      vertex -60.674999237060547 280.17752075195312 0.78896093368530273
      vertex -61.150001525878906 280.16107177734375 0.7027401328086853
      vertex -60.5 280.16107177734375 0.7027401328086853
    endloop
  endfacet
  facet normal 0 -0.98228415296981675 0.18739755287721735
    outer loop
      vertex -61.150001525878906 280.16107177734375 0.7027401328086853
      vertex -61.049999237060547 280.1939697265625 0.87518173456192017
      vertex -61.799999237060547 280.16107177734375 0.7027401328086853
    endloop
  endfacet
  facet normal 0.00014995080960742164 -0.98235610124135686 0.18701996649725933
    outer loop
      vertex -60.5 280.16107177734375 0.7027401328086853
      vertex -60.393749237060547 280.16519165039062 0.72429531812667847
      vertex -60.487499237060547 280.16928100585938 0.74585056304931641
    endloop
  endfacet
  facet normal 0 -0.98228415296981686 0.18739755287721738
    outer loop
      vertex -60.674999237060547 280.17752075195312 0.78896093368530273
      vertex -61.049999237060547 280.1939697265625 0.87518173456192017
      vertex -61.150001525878906 280.16107177734375 0.7027401328086853
    endloop
  endfacet
  facet normal 0 -0.9822200764915614 0.1877331119885651
    outer loop
      vertex -60.346874237060547 280.16928100585938 0.74585056304931641
      vertex -60.393749237060547 280.17752075195312 0.78896093368530273
      vertex -60.393749237060547 280.16928100585938 0.74585056304931641
    endloop
  endfacet
  facet normal -1 0 0
    outer loop
      vertex -61.799999237060547 280.36105346679688 0.68383616209030151
      vertex -61.799999237060547 280.36105346679688 2.3092638912203256e-14
      vertex -61.799999237060547 280.16107177734375 1.4210854715202004e-14
    endloop
  endfacet
  facet normal -1 0 0
    outer loop
      vertex -61.799999237060547 280.16107177734375 0.7027401328086853
      vertex -61.799999237060547 280.36105346679688 0.68383616209030151
      vertex -61.799999237060547 280.16107177734375 1.4210854715202004e-14
    endloop
  endfacet
  facet normal -1 0 0
    outer loop
      vertex -61.799999237060547 280.48910522460938 1.3550335168838501
      vertex -61.799999237060547 280.36105346679688 0.68383616209030151
      vertex -61.799999237060547 280.29263305664062 1.3925065994262695
    endloop
  endfacet
  facet normal -1 -0 -0
    outer loop
      vertex -61.799999237060547 280.16107177734375 0.7027401328086853
      vertex -61.799999237060547 280.29263305664062 1.3925065994262695
      vertex -61.799999237060547 280.36105346679688 0.68383616209030151
    endloop
  endfacet
  facet normal 0 5.329558453850213e-14 -1
    outer loop
      vertex -60.5 280.36105346679688 8.8817841970012523e-15
      vertex -60.299999237060547 280.16107177734375 -1.7763568394002505e-15
      vertex -60.5 280.16107177734375 -1.7763568394002505e-15
    endloop
  endfacet
  facet normal -3.1086126105344132e-14 -0 -1
    outer loop
      vertex -60.5 281.07684326171875 4.4408920985006262e-15
      vertex -60.299999237060547 281.79263305664062 -1.7763568394002505e-15
      vertex -60.299999237060547 280.97683715820312 -1.7763568394002505e-15
    endloop
  endfacet
  facet normal -5.3290501894875655e-14 -0 -1
    outer loop
      vertex -60.299999237060547 280.16107177734375 -1.7763568394002505e-15
      vertex -60.5 280.36105346679688 8.8817841970012523e-15
      vertex -60.299999237060547 280.97683715820312 -1.7763568394002505e-15
    endloop
  endfacet
  facet normal -3.4188395960909887e-14 -6.2041847061892351e-15 -1
    outer loop
      vertex -60.5 280.36105346679688 8.8817841970012523e-15
      vertex -60.5 281.07684326171875 4.4408920985006262e-15
      vertex -60.299999237060547 280.97683715820312 -1.7763568394002505e-15
    endloop
  endfacet
  facet normal -1.0931401042471901e-14 5.329558453850213e-14 -1
    outer loop
      vertex -61.150001525878906 280.36105346679688 1.5987211554602254e-14
      vertex -60.5 280.36105346679688 8.8817841970012523e-15
      vertex -60.5 280.16107177734375 -1.7763568394002505e-15
    endloop
  endfacet
  facet normal -1.2297826172780888e-14 4.885428582696028e-14 -1
    outer loop
      vertex -61.150001525878906 280.36105346679688 1.5987211554602254e-14
      vertex -60.5 280.16107177734375 -1.7763568394002505e-15
      vertex -61.150001525878906 280.16107177734375 6.2172489379008766e-15
    endloop
  endfacet
  facet normal -1.0931465196521906e-14 4.8854285826960287e-14 -1
    outer loop
      vertex -61.799999237060547 280.36105346679688 2.3092638912203256e-14
      vertex -61.150001525878906 280.36105346679688 1.5987211554602254e-14
      vertex -61.150001525878906 280.16107177734375 6.2172489379008766e-15
    endloop
  endfacet
  facet normal -1.2297898346087144e-14 4.4412987115418443e-14 -1
    outer loop
      vertex -61.799999237060547 280.36105346679688 2.3092638912203256e-14
      vertex -61.150001525878906 280.16107177734375 6.2172489379008766e-15
      vertex -61.799999237060547 280.16107177734375 1.4210854715202004e-14
    endloop
  endfacet
  facet normal -8.8817503158126091e-15 -6.2041847061892359e-15 -1
    outer loop
      vertex -60.299999237060547 281.79263305664062 -1.7763568394002505e-15
      vertex -60.5 281.07684326171875 4.4408920985006262e-15
      vertex -60.5 281.79263305664062 0
    endloop
  endfacet
endsolid OBJECT
