solid OBJECT
  facet normal -0 0 -1
    outer loop
      vertex -60.5 283.87710571289062 0
      vertex -60.5 284.2523193359375 0
      vertex -60.299999237060547 284.2523193359375 0
    endloop
  endfacet
  facet normal -0 0 -1
    outer loop
      vertex -60.5 283.87710571289062 0
      vertex -60.299999237060547 284.2523193359375 0
      vertex -60.299999237060547 283.87710571289062 0
    endloop
  endfacet
  facet normal 0 -0 -1
    outer loop
      vertex -60.299999237060547 284.62753295898438 0
      vertex -60.299999237060547 284.2523193359375 0
      vertex -60.5 284.2523193359375 0
    endloop
  endfacet
  facet normal 0 -0 -1
    outer loop
      vertex -60.299999237060547 284.62753295898438 0
      vertex -60.5 284.2523193359375 0
      vertex -60.5 284.62753295898438 0
    endloop
  endfacet
  facet normal -1 0 -0
    outer loop
      vertex -60.5 284.30508422851562 1.3994264602661133
      vertex -60.5 283.76055908203125 0.63946396112442017
      vertex -60.5 283.64398193359375 1.2789279222488403
    endloop
  endfacet
  facet normal -1 0 0
    outer loop
      vertex -60.5 284.30508422851562 1.3994264602661133
      vertex -60.5 284.90158081054688 1.2707850933074951
      vertex -60.5 284.76455688476562 0.63539254665374756
    endloop
  endfacet
  facet normal -1 -0 -0
    outer loop
      vertex -60.5 284.76455688476562 0.63539254665374756
      vertex -60.5 283.76055908203125 0.63946396112442017
      vertex -60.5 284.30508422851562 1.3994264602661133
    endloop
  endfacet
  facet normal -1 0 0
    outer loop
      vertex -60.5 283.76055908203125 0.63946396112442017
      vertex -60.5 284.76455688476562 0.63539254665374756
      vertex -60.5 284.2523193359375 0
    endloop
  endfacet
  facet normal -1 -0 0
    outer loop
      vertex -60.5 284.2523193359375 0
      vertex -60.5 284.76455688476562 0.63539254665374756
      vertex -60.5 284.62753295898438 0
    endloop
  endfacet
  facet normal -1 -0 0
    outer loop
      vertex -60.5 283.87710571289062 0
      vertex -60.5 283.76055908203125 0.63946396112442017
      vertex -60.5 284.2523193359375 0
    endloop
  endfacet
  facet normal 0 -0.17932594744507915 0.98378971562673112
    outer loop
      vertex -61.049999237060547 284.2208251953125 1.5873643159866333
      vertex -61.049999237060547 284.13330078125 1.5714102983474731
      vertex -60.674999237060547 284.13330078125 1.5714102983474731
    endloop
  endfacet
  facet normal 0 -0.17932594744507915 0.98378971562673112
    outer loop
      vertex -61.049999237060547 284.2208251953125 1.5873643159866333
      vertex -60.674999237060547 284.13330078125 1.5714102983474731
      vertex -60.674999237060547 284.2208251953125 1.5873643159866333
    endloop
  endfacet
  facet normal 0 -0.17932594744507915 0.98378971562673112
    outer loop
      vertex -60.674999237060547 284.26458740234375 1.5953413248062134
      vertex -60.674999237060547 284.2208251953125 1.5873643159866333
      vertex -60.487499237060547 284.2208251953125 1.5873643159866333
    endloop
  endfacet
  facet normal 0 -0.17932594744507915 0.98378971562673112
    outer loop
      vertex -60.674999237060547 284.26458740234375 1.5953413248062134
      vertex -60.487499237060547 284.2208251953125 1.5873643159866333
      vertex -60.487499237060547 284.26458740234375 1.5953413248062134
    endloop
  endfacet
  facet normal 0 -0.17932594744507915 0.98378971562673112
    outer loop
      vertex -60.487499237060547 284.28646850585938 1.5993298292160034
      vertex -60.487499237060547 284.26458740234375 1.5953413248062134
      vertex -60.393749237060547 284.26458740234375 1.5953413248062134
    endloop
  endfacet
  facet normal 0 -0.17932594744507915 0.98378971562673112
    outer loop
      vertex -60.487499237060547 284.28646850585938 1.5993298292160034
      vertex -60.393749237060547 284.26458740234375 1.5953413248062134
      vertex -60.393749237060547 284.28646850585938 1.5993298292160034
    endloop
  endfacet
  facet normal -0 -0.17931607817099599 0.98379151455446756
    outer loop
      vertex -61.049999237060547 283.60812377929688 1.4756860733032227
      vertex -60.299999237060547 283.60812377929688 1.4756860733032227
      vertex -60.674999237060547 284.13330078125 1.5714102983474731
    endloop
  endfacet
  facet normal 2.6459052396097242e-05 -0.17938080648446805 0.9837797139425577
    outer loop
      vertex -60.299999237060547 284.26922607421875 1.5961846113204956
      vertex -60.487499237060547 284.2208251953125 1.5873643159866333
      vertex -60.674999237060547 284.13330078125 1.5714102983474731
    endloop
  endfacet
  facet normal 0 -0.17932594744507915 0.98378971562673112
    outer loop
      vertex -60.674999237060547 284.13330078125 1.5714102983474731
      vertex -60.487499237060547 284.2208251953125 1.5873643159866333
      vertex -60.674999237060547 284.2208251953125 1.5873643159866333
    endloop
  endfacet
  facet normal 1.7616055092244749e-06 -0.17931486075074732 0.9837917364517943
    outer loop
      vertex -60.299999237060547 284.26922607421875 1.5961846113204956
      vertex -60.674999237060547 284.13330078125 1.5714102983474731
      vertex -60.299999237060547 283.60812377929688 1.4756860733032227
    endloop
  endfacet
  facet normal 0 -0.17931114394376335 0.9837924139052806
    outer loop
      vertex -61.799999237060547 283.958251953125 1.5395022630691528
      vertex -61.799999237060547 283.60812377929688 1.4756860733032227
      vertex -61.049999237060547 283.60812377929688 1.4756860733032227
    endloop
  endfacet
  facet normal 0 -0.17932594744507915 0.98378971562673112
    outer loop
      vertex -61.799999237060547 284.308349609375 1.6033183336257935
      vertex -61.799999237060547 283.958251953125 1.5395022630691528
      vertex -61.049999237060547 284.13330078125 1.5714102983474731
    endloop
  endfacet
  facet normal 0 -0.17932594744507915 0.98378971562673112
    outer loop
      vertex -61.799999237060547 284.308349609375 1.6033183336257935
      vertex -61.049999237060547 284.13330078125 1.5714102983474731
      vertex -61.049999237060547 284.2208251953125 1.5873643159866333
    endloop
  endfacet
  facet normal -1.7849925547944163e-06 -0.17931484458829067 0.98379173939766895
    outer loop
      vertex -60.674999237060547 284.13330078125 1.5714102983474731
      vertex -61.799999237060547 283.958251953125 1.5395022630691528
      vertex -61.049999237060547 283.60812377929688 1.4756860733032227
    endloop
  endfacet
  facet normal 0 -0.17932594744507915 0.98378971562673112
    outer loop
      vertex -61.799999237060547 283.958251953125 1.5395022630691528
      vertex -60.674999237060547 284.13330078125 1.5714102983474731
      vertex -61.049999237060547 284.13330078125 1.5714102983474731
    endloop
  endfacet
  facet normal 0 -0.17932594744507915 0.98378971562673112
    outer loop
      vertex -61.049999237060547 284.2208251953125 1.5873643159866333
      vertex -60.674999237060547 284.2208251953125 1.5873643159866333
      vertex -60.674999237060547 284.26458740234375 1.5953413248062134
    endloop
  endfacet
  facet normal 0 -0.17932594744507915 0.98378971562673112
    outer loop
      vertex -60.487499237060547 284.2208251953125 1.5873643159866333
      vertex -60.393749237060547 284.26458740234375 1.5953413248062134
      vertex -60.487499237060547 284.26458740234375 1.5953413248062134
    endloop
  endfacet
  facet normal 1.3229526201521775e-05 -0.17938080653156097 0.98377971420082977
    outer loop
      vertex -60.393749237060547 284.28646850585938 1.5993298292160034
      vertex -60.299999237060547 284.26922607421875 1.5961846113204956
      vertex -60.299999237060547 284.308349609375 1.6033183336257935
    endloop
  endfacet
  facet normal 2.3654707125625874e-05 -0.17932594739490867 0.98378971535149373
    outer loop
      vertex -60.393749237060547 284.26458740234375 1.5953413248062134
      vertex -60.299999237060547 284.26922607421875 1.5961846113204956
      vertex -60.393749237060547 284.28646850585938 1.5993298292160034
    endloop
  endfacet
  facet normal 2.6459052396095806e-05 -0.17938080648446803 0.98377971394255759
    outer loop
      vertex -60.299999237060547 284.26922607421875 1.5961846113204956
      vertex -60.393749237060547 284.26458740234375 1.5953413248062134
      vertex -60.487499237060547 284.2208251953125 1.5873643159866333
    endloop
  endfacet
  facet normal 0 -0.17932594744507918 0.98378971562673123
    outer loop
      vertex -60.299999237060547 284.308349609375 1.6033183336257935
      vertex -60.5 284.308349609375 1.6033183336257935
      vertex -60.487499237060547 284.28646850585938 1.5993298292160034
    endloop
  endfacet
  facet normal 0 -0.17932594744507915 0.98378971562673112
    outer loop
      vertex -60.299999237060547 284.308349609375 1.6033183336257935
      vertex -60.487499237060547 284.28646850585938 1.5993298292160034
      vertex -60.393749237060547 284.28646850585938 1.5993298292160034
    endloop
  endfacet
  facet normal 0 -0.17932594744507915 0.98378971562673112
    outer loop
      vertex -60.5 284.308349609375 1.6033183336257935
      vertex -60.674999237060547 284.26458740234375 1.5953413248062134
      vertex -60.487499237060547 284.28646850585938 1.5993298292160034
    endloop
  endfacet
  facet normal 0 -0.17932594744507915 0.98378971562673112
    outer loop
      vertex -60.487499237060547 284.26458740234375 1.5953413248062134
      vertex -60.487499237060547 284.28646850585938 1.5993298292160034
      vertex -60.674999237060547 284.26458740234375 1.5953413248062134
    endloop
  endfacet
  facet normal 0 -0.17932594744507918 0.98378971562673123
    outer loop
      vertex -60.674999237060547 284.26458740234375 1.5953413248062134
      vertex -60.5 284.308349609375 1.6033183336257935
      vertex -61.150001525878906 284.308349609375 1.6033183336257935
    endloop
  endfacet
  facet normal 0 -0.17932594744507918 0.98378971562673123
    outer loop
      vertex -61.150001525878906 284.308349609375 1.6033183336257935
      vertex -61.799999237060547 284.308349609375 1.6033183336257935
      vertex -61.049999237060547 284.2208251953125 1.5873643159866333
    endloop
  endfacet
  facet normal 0 -0.17932594744507915 0.98378971562673112
    outer loop
      vertex -60.674999237060547 284.26458740234375 1.5953413248062134
      vertex -61.150001525878906 284.308349609375 1.6033183336257935
      vertex -61.049999237060547 284.2208251953125 1.5873643159866333
    endloop
  endfacet
  facet normal -0 0.21081708953958134 0.97752552639716783
    outer loop
      vertex -61.049999237060547 284.62603759765625 1.5348044633865356
      vertex -61.049999237060547 284.46719360351562 1.5690613985061646
      vertex -60.674999237060547 284.46719360351562 1.5690613985061646
    endloop
  endfacet
  facet normal 1.3565891832062025e-17 0.21081708953958134 0.97752552639716783
    outer loop
      vertex -61.049999237060547 284.62603759765625 1.5348044633865356
      vertex -60.674999237060547 284.46719360351562 1.5690613985061646
      vertex -60.674999237060547 284.62603759765625 1.5348044633865356
    endloop
  endfacet
  facet normal -0 0.21085579918344524 0.97751717731746812
    outer loop
      vertex -60.674999237060547 284.46719360351562 1.5690613985061646
      vertex -60.674999237060547 284.38778686523438 1.586189866065979
      vertex -60.487499237060547 284.38778686523438 1.586189866065979
    endloop
  endfacet
  facet normal 0 0.21085579918344524 0.97751717731746812
    outer loop
      vertex -60.674999237060547 284.46719360351562 1.5690613985061646
      vertex -60.487499237060547 284.38778686523438 1.586189866065979
      vertex -60.487499237060547 284.46719360351562 1.5690613985061646
    endloop
  endfacet
  facet normal -0 0.21070104385855618 0.97755054606752423
    outer loop
      vertex -60.487499237060547 284.38778686523438 1.586189866065979
      vertex -60.487499237060547 284.34805297851562 1.5947540998458862
      vertex -60.393749237060547 284.34805297851562 1.5947540998458862
    endloop
  endfacet
  facet normal 0 0.21070104385855618 0.97755054606752423
    outer loop
      vertex -60.487499237060547 284.38778686523438 1.586189866065979
      vertex -60.393749237060547 284.34805297851562 1.5947540998458862
      vertex -60.393749237060547 284.38778686523438 1.586189866065979
    endloop
  endfacet
  facet normal -5.5612018781811193e-08 0.2108556737072394 0.97751720438336187
    outer loop
      vertex -60.393749237060547 284.34805297851562 1.5947540998458862
      vertex -60.299999237060547 284.308349609375 1.6033183336257935
      vertex -60.299999237060547 284.34722900390625 1.5949318408966064
    endloop
  endfacet
  facet normal -1.4778760736301137e-06 0.21070104385832611 0.97755054606645686
    outer loop
      vertex -60.299999237060547 284.34722900390625 1.5949318408966064
      vertex -60.393749237060547 284.38778686523438 1.586189866065979
      vertex -60.393749237060547 284.34805297851562 1.5947540998458862
    endloop
  endfacet
  facet normal 0.00014017912738757492 0.21101393593000325 0.97748304291846455
    outer loop
      vertex -60.393749237060547 284.38778686523438 1.586189866065979
      vertex -60.299999237060547 284.34722900390625 1.5949318408966064
      vertex -60.487499237060547 284.46719360351562 1.5690613985061646
    endloop
  endfacet
  facet normal -0 0.21085579918344527 0.97751717731746823
    outer loop
      vertex -60.5 284.308349609375 1.6033183336257935
      vertex -60.299999237060547 284.308349609375 1.6033183336257935
      vertex -60.393749237060547 284.34805297851562 1.5947540998458862
    endloop
  endfacet
  facet normal 0 0.2108557991834453 0.97751717731746823
    outer loop
      vertex -60.5 284.308349609375 1.6033183336257935
      vertex -60.393749237060547 284.34805297851562 1.5947540998458862
      vertex -60.487499237060547 284.34805297851562 1.5947540998458862
    endloop
  endfacet
  facet normal -0 0.21077839377566299 0.97753387087985433
    outer loop
      vertex -60.5 284.308349609375 1.6033183336257935
      vertex -60.674999237060547 284.38778686523438 1.586189866065979
      vertex -61.150001525878906 284.308349609375 1.6033183336257935
    endloop
  endfacet
  facet normal -6.7829459160310123e-18 0.21081708953958134 0.97752552639716783
    outer loop
      vertex -61.049999237060547 284.46719360351562 1.5690613985061646
      vertex -61.799999237060547 284.308349609375 1.6033183336257935
      vertex -61.150001525878906 284.308349609375 1.6033183336257935
    endloop
  endfacet
  facet normal 3.2172441939830695e-05 0.21084611980792295 0.97751926463209771
    outer loop
      vertex -60.674999237060547 284.38778686523438 1.586189866065979
      vertex -60.5 284.308349609375 1.6033183336257935
      vertex -60.487499237060547 284.34805297851562 1.5947540998458862
    endloop
  endfacet
  facet normal 0 0.21070104385855618 0.97755054606752423
    outer loop
      vertex -60.487499237060547 284.34805297851562 1.5947540998458862
      vertex -60.487499237060547 284.38778686523438 1.586189866065979
      vertex -60.674999237060547 284.38778686523438 1.586189866065979
    endloop
  endfacet
  facet normal -0 0.21085579918344524 0.97751717731746812
    outer loop
      vertex -60.487499237060547 284.38778686523438 1.586189866065979
      vertex -60.393749237060547 284.38778686523438 1.586189866065979
      vertex -60.487499237060547 284.46719360351562 1.5690613985061646
    endloop
  endfacet
  facet normal -0 0.21081708953958134 0.97752552639716783
    outer loop
      vertex -60.674999237060547 284.46719360351562 1.5690613985061646
      vertex -60.487499237060547 284.46719360351562 1.5690613985061646
      vertex -60.674999237060547 284.62603759765625 1.5348044633865356
    endloop
  endfacet
  facet normal -8.5777756465593283e-06 0.21080741428988578 0.97752761291271661
    outer loop
      vertex -60.299999237060547 284.94375610351562 1.4662905931472778
      vertex -60.674999237060547 284.62603759765625 1.5348044633865356
      vertex -60.487499237060547 284.46719360351562 1.5690613985061646
    endloop
  endfacet
  facet normal 0 0.21079773992308395 0.9775296992129292
    outer loop
      vertex -61.049999237060547 284.94375610351562 1.4662905931472778
      vertex -60.674999237060547 284.62603759765625 1.5348044633865356
      vertex -60.299999237060547 284.94375610351562 1.4662905931472778
    endloop
  endfacet
  facet normal -2.1137278078251735e-07 0.21080426887717388 0.97752829126481844
    outer loop
      vertex -60.299999237060547 284.94375610351562 1.4662905931472778
      vertex -60.487499237060547 284.46719360351562 1.5690613985061646
      vertex -60.299999237060547 284.34722900390625 1.5949318408966064
    endloop
  endfacet
  facet normal 0 0.21085579918344524 0.97751717731746812
    outer loop
      vertex -61.049999237060547 284.46719360351562 1.5690613985061646
      vertex -60.674999237060547 284.38778686523438 1.586189866065979
      vertex -60.674999237060547 284.46719360351562 1.5690613985061646
    endloop
  endfacet
  facet normal 6.7829459160310123e-18 0.21081708953958134 0.97752552639716783
    outer loop
      vertex -61.799999237060547 284.62603759765625 1.5348044633865356
      vertex -61.049999237060547 284.46719360351562 1.5690613985061646
      vertex -61.049999237060547 284.62603759765625 1.5348044633865356
    endloop
  endfacet
  facet normal -0 0.21079773992308395 0.9775296992129292
    outer loop
      vertex -61.799999237060547 284.94375610351562 1.4662905931472778
      vertex -61.799999237060547 284.62603759765625 1.5348044633865356
      vertex -61.049999237060547 284.62603759765625 1.5348044633865356
    endloop
  endfacet
  facet normal 1.3565949741513722e-17 0.21079773992308395 0.9775296992129292
    outer loop
      vertex -61.799999237060547 284.94375610351562 1.4662905931472778
      vertex -61.049999237060547 284.62603759765625 1.5348044633865356
      vertex -61.049999237060547 284.94375610351562 1.4662905931472778
    endloop
  endfacet
  facet normal -0 0.21079773992308395 0.9775296992129292
    outer loop
      vertex -61.049999237060547 284.94375610351562 1.4662905931472778
      vertex -61.049999237060547 284.62603759765625 1.5348044633865356
      vertex -60.674999237060547 284.62603759765625 1.5348044633865356
    endloop
  endfacet
  facet normal -6.7829459160310123e-18 0.21081708953958134 0.97752552639716783
    outer loop
      vertex -61.799999237060547 284.308349609375 1.6033183336257935
      vertex -61.049999237060547 284.46719360351562 1.5690613985061646
      vertex -61.799999237060547 284.62603759765625 1.5348044633865356
    endloop
  endfacet
  facet normal -7.5691160420852967e-06 0.2108216429806965 0.9775245443433267
    outer loop
      vertex -61.150001525878906 284.308349609375 1.6033183336257935
      vertex -60.674999237060547 284.38778686523438 1.586189866065979
      vertex -61.049999237060547 284.46719360351562 1.5690613985061646
    endloop
  endfacet
  facet normal 1 -0 -0
    outer loop
      vertex -60.299999237060547 284.649658203125 1.2501577138900757
      vertex -60.299999237060547 284.613037109375 1.4511665105819702
      vertex -60.299999237060547 284.45166015625 1.4217516183853149
    endloop
  endfacet
  facet normal 1 -0 0
    outer loop
      vertex -60.299999237060547 284.649658203125 1.2501577138900757
      vertex -60.299999237060547 284.45166015625 1.4217516183853149
      vertex -60.299999237060547 284.48828125 1.2207428216934204
    endloop
  endfacet
  facet normal 1 -0 -0
    outer loop
      vertex -60.299999237060547 284.45166015625 1.4217516183853149
      vertex -60.299999237060547 284.43331909179688 1.5222560167312622
      vertex -60.299999237060547 284.35263061523438 1.5075485706329346
    endloop
  endfacet
  facet normal 1 -0 0
    outer loop
      vertex -60.299999237060547 284.45166015625 1.4217516183853149
      vertex -60.299999237060547 284.35263061523438 1.5075485706329346
      vertex -60.299999237060547 284.3709716796875 1.4070441722869873
    endloop
  endfacet
  facet normal 1 -0 -0
    outer loop
      vertex -60.299999237060547 284.3709716796875 1.4070441722869873
      vertex -60.299999237060547 284.35263061523438 1.5075485706329346
      vertex -60.299999237060547 284.27194213867188 1.4928412437438965
    endloop
  endfacet
  facet normal 1 -0 0
    outer loop
      vertex -60.299999237060547 284.3709716796875 1.4070441722869873
      vertex -60.299999237060547 284.27194213867188 1.4928412437438965
      vertex -60.299999237060547 284.290283203125 1.3923367261886597
    endloop
  endfacet
  facet normal 1 0 -0
    outer loop
      vertex -60.299999237060547 284.3709716796875 1.4070441722869873
      vertex -60.299999237060547 284.290283203125 1.3923367261886597
      vertex -60.299999237060547 284.326904296875 1.1913279294967651
    endloop
  endfacet
  facet normal 1 -0 -0
    outer loop
      vertex -60.299999237060547 284.48828125 1.2207428216934204
      vertex -60.299999237060547 284.45166015625 1.4217516183853149
      vertex -60.299999237060547 284.3709716796875 1.4070441722869873
    endloop
  endfacet
  facet normal 1 -0 0
    outer loop
      vertex -60.299999237060547 284.326904296875 1.1913279294967651
      vertex -60.299999237060547 284.48828125 1.2207428216934204
      vertex -60.299999237060547 284.3709716796875 1.4070441722869873
    endloop
  endfacet
  facet normal 1 0 -0
    outer loop
      vertex -60.299999237060547 284.48828125 1.2207428216934204
      vertex -60.299999237060547 284.326904296875 1.1913279294967651
      vertex -60.299999237060547 284.40017700195312 0.78931021690368652
    endloop
  endfacet
  facet normal 1 -0 -0
    outer loop
      vertex -60.299999237060547 284.72293090820312 0.84814000129699707
      vertex -60.299999237060547 284.649658203125 1.2501577138900757
      vertex -60.299999237060547 284.48828125 1.2207428216934204
    endloop
  endfacet
  facet normal 1 -0 0
    outer loop
      vertex -60.299999237060547 284.40017700195312 0.78931021690368652
      vertex -60.299999237060547 284.72293090820312 0.84814000129699707
      vertex -60.299999237060547 284.48828125 1.2207428216934204
    endloop
  endfacet
  facet normal 1 0 -0
    outer loop
      vertex -60.299999237060547 284.16552734375 1.1619130373001099
      vertex -60.299999237060547 284.004150390625 1.1324981451034546
      vertex -60.299999237060547 284.07745361328125 0.73048049211502075
    endloop
  endfacet
  facet normal 1 -0 -0
    outer loop
      vertex -60.299999237060547 284.40017700195312 0.78931021690368652
      vertex -60.299999237060547 284.326904296875 1.1913279294967651
      vertex -60.299999237060547 284.16552734375 1.1619130373001099
    endloop
  endfacet
  facet normal 1 -0 0
    outer loop
      vertex -60.299999237060547 284.07745361328125 0.73048049211502075
      vertex -60.299999237060547 284.40017700195312 0.78931021690368652
      vertex -60.299999237060547 284.16552734375 1.1619130373001099
    endloop
  endfacet
  facet normal 1 -0 -0
    outer loop
      vertex -60.299999237060547 284.326904296875 1.1913279294967651
      vertex -60.299999237060547 284.290283203125 1.3923367261886597
      vertex -60.299999237060547 284.12890625 1.3629219532012939
    endloop
  endfacet
  facet normal 1 -0 0
    outer loop
      vertex -60.299999237060547 284.326904296875 1.1913279294967651
      vertex -60.299999237060547 284.12890625 1.3629219532012939
      vertex -60.299999237060547 284.16552734375 1.1619130373001099
    endloop
  endfacet
  facet normal 1 -0 -0
    outer loop
      vertex -60.299999237060547 284.16552734375 1.1619130373001099
      vertex -60.299999237060547 284.12890625 1.3629219532012939
      vertex -60.299999237060547 283.967529296875 1.3335070610046387
    endloop
  endfacet
  facet normal 1 -0 0
    outer loop
      vertex -60.299999237060547 284.16552734375 1.1619130373001099
      vertex -60.299999237060547 283.967529296875 1.3335070610046387
      vertex -60.299999237060547 284.004150390625 1.1324981451034546
    endloop
  endfacet
  facet normal 1 0 -0
    outer loop
      vertex -60.299999237060547 284.26922607421875 1.5961846113204956
      vertex -60.299999237060547 283.60812377929688 1.4756860733032227
      vertex -60.299999237060547 283.967529296875 1.3335070610046387
    endloop
  endfacet
  facet normal 1 0 0
    outer loop
      vertex -60.299999237060547 284.26922607421875 1.5961846113204956
      vertex -60.299999237060547 283.967529296875 1.3335070610046387
      vertex -60.299999237060547 284.12890625 1.3629219532012939
    endloop
  endfacet
  facet normal 1 0 0
    outer loop
      vertex -60.299999237060547 283.64398193359375 1.2789279222488403
      vertex -60.299999237060547 283.967529296875 1.3335070610046387
      vertex -60.299999237060547 283.60812377929688 1.4756860733032227
    endloop
  endfacet
  facet normal 1 0 0
    outer loop
      vertex -60.299999237060547 284.12890625 1.3629219532012939
      vertex -60.299999237060547 284.27194213867188 1.4928412437438965
      vertex -60.299999237060547 284.26922607421875 1.5961846113204956
    endloop
  endfacet
  facet normal 1 0 -0
    outer loop
      vertex -60.299999237060547 284.27194213867188 1.4928412437438965
      vertex -60.299999237060547 284.12890625 1.3629219532012939
      vertex -60.299999237060547 284.290283203125 1.3923367261886597
    endloop
  endfacet
  facet normal 1 -0 -0
    outer loop
      vertex -60.299999237060547 283.967529296875 1.3335070610046387
      vertex -60.299999237060547 283.64398193359375 1.2789279222488403
      vertex -60.299999237060547 284.004150390625 1.1324981451034546
    endloop
  endfacet
  facet normal 1 -0 0
    outer loop
      vertex -60.299999237060547 284.34722900390625 1.5949318408966064
      vertex -60.299999237060547 284.308349609375 1.6033183336257935
      vertex -60.299999237060547 284.35263061523438 1.5075485706329346
    endloop
  endfacet
  facet normal 1 0 -0
    outer loop
      vertex -60.299999237060547 284.27194213867188 1.4928412437438965
      vertex -60.299999237060547 284.308349609375 1.6033183336257935
      vertex -60.299999237060547 284.26922607421875 1.5961846113204956
    endloop
  endfacet
  facet normal 1 0 -0
    outer loop
      vertex -60.299999237060547 284.613037109375 1.4511665105819702
      vertex -60.299999237060547 284.43331909179688 1.5222560167312622
      vertex -60.299999237060547 284.45166015625 1.4217516183853149
    endloop
  endfacet
  facet normal 1 0 0
    outer loop
      vertex -60.299999237060547 284.34722900390625 1.5949318408966064
      vertex -60.299999237060547 284.35263061523438 1.5075485706329346
      vertex -60.299999237060547 284.43331909179688 1.5222560167312622
    endloop
  endfacet
  facet normal 1 0 0
    outer loop
      vertex -60.299999237060547 284.308349609375 1.6033183336257935
      vertex -60.299999237060547 284.27194213867188 1.4928412437438965
      vertex -60.299999237060547 284.35263061523438 1.5075485706329346
    endloop
  endfacet
  facet normal 1 0 -0
    outer loop
      vertex -60.299999237060547 284.613037109375 1.4511665105819702
      vertex -60.299999237060547 284.34722900390625 1.5949318408966064
      vertex -60.299999237060547 284.43331909179688 1.5222560167312622
    endloop
  endfacet
  facet normal 1 -0 0
    outer loop
      vertex -60.299999237060547 283.76055908203125 0.63946396112442017
      vertex -60.299999237060547 284.07745361328125 0.73048049211502075
      vertex -60.299999237060547 284.004150390625 1.1324981451034546
    endloop
  endfacet
  facet normal 1 -0 0
    outer loop
      vertex -60.299999237060547 284.2523193359375 0
      vertex -60.299999237060547 284.40017700195312 0.78931021690368652
      vertex -60.299999237060547 284.07745361328125 0.73048049211502075
    endloop
  endfacet
  facet normal 1 0 0
    outer loop
      vertex -60.299999237060547 284.07745361328125 0.73048049211502075
      vertex -60.299999237060547 283.87710571289062 0
      vertex -60.299999237060547 284.2523193359375 0
    endloop
  endfacet
  facet normal 1 0 -0
    outer loop
      vertex -60.299999237060547 283.76055908203125 0.63946396112442017
      vertex -60.299999237060547 283.87710571289062 0
      vertex -60.299999237060547 284.07745361328125 0.73048049211502075
    endloop
  endfacet
  facet normal 1 -0 0
    outer loop
      vertex -60.299999237060547 283.76055908203125 0.63946396112442017
      vertex -60.299999237060547 284.004150390625 1.1324981451034546
      vertex -60.299999237060547 283.64398193359375 1.2789279222488403
    endloop
  endfacet
  facet normal 1 -0 -0
    outer loop
      vertex -60.299999237060547 284.62753295898438 0
      vertex -60.299999237060547 284.40017700195312 0.78931021690368652
      vertex -60.299999237060547 284.2523193359375 0
    endloop
  endfacet
  facet normal 1 0 0
    outer loop
      vertex -60.299999237060547 284.90158081054688 1.2707850933074951
      vertex -60.299999237060547 284.94375610351562 1.4662905931472778
      vertex -60.299999237060547 284.613037109375 1.4511665105819702
    endloop
  endfacet
  facet normal 1 0 0
    outer loop
      vertex -60.299999237060547 284.649658203125 1.2501577138900757
      vertex -60.299999237060547 284.90158081054688 1.2707850933074951
      vertex -60.299999237060547 284.613037109375 1.4511665105819702
    endloop
  endfacet
  facet normal 1 0 0
    outer loop
      vertex -60.299999237060547 284.34722900390625 1.5949318408966064
      vertex -60.299999237060547 284.613037109375 1.4511665105819702
      vertex -60.299999237060547 284.94375610351562 1.4662905931472778
    endloop
  endfacet
  facet normal 1 -0 -0
    outer loop
      vertex -60.299999237060547 284.72293090820312 0.84814000129699707
      vertex -60.299999237060547 284.40017700195312 0.78931021690368652
      vertex -60.299999237060547 284.76455688476562 0.63539254665374756
    endloop
  endfacet
  facet normal 1 -0 0
    outer loop
      vertex -60.299999237060547 284.72293090820312 0.84814000129699707
      vertex -60.299999237060547 284.76455688476562 0.63539254665374756
      vertex -60.299999237060547 284.90158081054688 1.2707850933074951
    endloop
  endfacet
  facet normal 1 0 -0
    outer loop
      vertex -60.299999237060547 284.649658203125 1.2501577138900757
      vertex -60.299999237060547 284.72293090820312 0.84814000129699707
      vertex -60.299999237060547 284.90158081054688 1.2707850933074951
    endloop
  endfacet
  facet normal 1 -0 0
    outer loop
      vertex -60.299999237060547 284.62753295898438 0
      vertex -60.299999237060547 284.76455688476562 0.63539254665374756
      vertex -60.299999237060547 284.40017700195312 0.78931021690368652
    endloop
  endfacet
  facet normal -0 0.17931486075102557 -0.98379173645332085
    outer loop
      vertex -61.150001525878906 283.64398193359375 1.2789279222488403
      vertex -61.150001525878906 284.30508422851562 1.3994264602661133
      vertex -60.5 284.30508422851562 1.3994264602661133
    endloop
  endfacet
  facet normal -0 0.17931486075102557 -0.98379173645332085
    outer loop
      vertex -61.150001525878906 283.64398193359375 1.2789279222488403
      vertex -60.5 284.30508422851562 1.3994264602661133
      vertex -60.5 283.64398193359375 1.2789279222488403
    endloop
  endfacet
  facet normal 0 0.17930702146918828 -0.98379316528010519
    outer loop
      vertex -61.799999237060547 283.97454833984375 1.3391772508621216
      vertex -61.150001525878906 283.64398193359375 1.2789279222488403
      vertex -61.799999237060547 283.64398193359375 1.2789279222488403
    endloop
  endfacet
  facet normal 4.1192284725080506e-06 0.17931486074950426 -0.98379173644497431
    outer loop
      vertex -61.150001525878906 283.64398193359375 1.2789279222488403
      vertex -61.799999237060547 283.97454833984375 1.3391772508621216
      vertex -61.150001525878906 284.30508422851562 1.3994264602661133
    endloop
  endfacet
  facet normal 0 0.17932270072248288 -0.98379030743629248
    outer loop
      vertex -61.150001525878906 284.30508422851562 1.3994264602661133
      vertex -61.799999237060547 283.97454833984375 1.3391772508621216
      vertex -61.799999237060547 284.30508422851562 1.3994264602661133
    endloop
  endfacet
  facet normal 0 -0.21081476128109924 -0.97752602851586168
    outer loop
      vertex -61.150001525878906 284.30508422851562 1.3994264602661133
      vertex -61.150001525878906 284.90158081054688 1.2707850933074951
      vertex -60.5 284.90158081054688 1.2707850933074951
    endloop
  endfacet
  facet normal 0 -0.21081476128109924 -0.97752602851586168
    outer loop
      vertex -61.150001525878906 284.30508422851562 1.3994264602661133
      vertex -60.5 284.90158081054688 1.2707850933074951
      vertex -60.5 284.30508422851562 1.3994264602661133
    endloop
  endfacet
  facet normal 0 -0.21081476128109924 -0.97752602851586168
    outer loop
      vertex -61.799999237060547 284.60333251953125 1.3351057767868042
      vertex -61.150001525878906 284.30508422851562 1.3994264602661133
      vertex -61.799999237060547 284.30508422851562 1.3994264602661133
    endloop
  endfacet
  facet normal 0 -0.21081476128109924 -0.97752602851586168
    outer loop
      vertex -61.150001525878906 284.30508422851562 1.3994264602661133
      vertex -61.799999237060547 284.60333251953125 1.3351057767868042
      vertex -61.150001525878906 284.90158081054688 1.2707850933074951
    endloop
  endfacet
  facet normal 0 -0.21081476128109924 -0.97752602851586168
    outer loop
      vertex -61.150001525878906 284.90158081054688 1.2707850933074951
      vertex -61.799999237060547 284.60333251953125 1.3351057767868042
      vertex -61.799999237060547 284.90158081054688 1.2707850933074951
    endloop
  endfacet
  facet normal 0 -0.98379595420557153 -0.17929171896311658
    outer loop
      vertex -61.799999237060547 283.60812377929688 1.4756860733032227
      vertex -61.799999237060547 283.64398193359375 1.2789279222488403
      vertex -61.150001525878906 283.64398193359375 1.2789279222488403
    endloop
  endfacet
  facet normal -0 -0.98379595420557153 -0.17929171896311658
    outer loop
      vertex -61.799999237060547 283.60812377929688 1.4756860733032227
      vertex -61.150001525878906 283.64398193359375 1.2789279222488403
      vertex -61.049999237060547 283.60812377929688 1.4756860733032227
    endloop
  endfacet
  facet normal -0 -0.98379595420557153 -0.17929171896311658
    outer loop
      vertex -60.5 283.64398193359375 1.2789279222488403
      vertex -60.299999237060547 283.60812377929688 1.4756860733032227
      vertex -61.049999237060547 283.60812377929688 1.4756860733032227
    endloop
  endfacet
  facet normal 0 -0.98379595420557131 -0.17929171896311655
    outer loop
      vertex -60.5 283.64398193359375 1.2789279222488403
      vertex -61.049999237060547 283.60812377929688 1.4756860733032227
      vertex -61.150001525878906 283.64398193359375 1.2789279222488403
    endloop
  endfacet
  facet normal -0 -0.98378559943795529 -0.17934852756156944
    outer loop
      vertex -60.5 283.76055908203125 0.63946396112442017
      vertex -60.299999237060547 283.76055908203125 0.63946396112442017
      vertex -60.299999237060547 283.64398193359375 1.2789279222488403
    endloop
  endfacet
  facet normal 0 -0.98378559943795529 -0.17934852756156944
    outer loop
      vertex -60.5 283.76055908203125 0.63946396112442017
      vertex -60.299999237060547 283.64398193359375 1.2789279222488403
      vertex -60.5 283.64398193359375 1.2789279222488403
    endloop
  endfacet
  facet normal 0 -0.98379595420557142 -0.17929171896311655
    outer loop
      vertex -60.299999237060547 283.60812377929688 1.4756860733032227
      vertex -60.5 283.64398193359375 1.2789279222488403
      vertex -60.299999237060547 283.64398193359375 1.2789279222488403
    endloop
  endfacet
  facet normal 0 -0.98379388231787712 -0.17930308729611755
    outer loop
      vertex -60.299999237060547 283.76055908203125 0.63946396112442017
      vertex -60.5 283.76055908203125 0.63946396112442017
      vertex -60.5 283.87710571289062 0
    endloop
  endfacet
  facet normal -0 -0.98379388231787712 -0.17930308729611755
    outer loop
      vertex -60.299999237060547 283.76055908203125 0.63946396112442017
      vertex -60.5 283.87710571289062 0
      vertex -60.299999237060547 283.87710571289062 0
    endloop
  endfacet
  facet normal 0 0.97751337662017668 -0.21087341825991379
    outer loop
      vertex -60.5 284.90158081054688 1.2707850933074951
      vertex -60.299999237060547 284.94375610351562 1.4662905931472778
      vertex -60.299999237060547 284.90158081054688 1.2707850933074951
    endloop
  endfacet
  facet normal -0 0.97752786875107245 -0.21080622812190872
    outer loop
      vertex -60.5 284.76455688476562 0.63539254665374756
      vertex -60.299999237060547 284.76455688476562 0.63539254665374756
      vertex -60.299999237060547 284.62753295898438 0
    endloop
  endfacet
  facet normal -0 0.97752786875107245 -0.21080622812190872
    outer loop
      vertex -60.299999237060547 284.90158081054688 1.2707850933074951
      vertex -60.299999237060547 284.76455688476562 0.63539254665374756
      vertex -60.5 284.90158081054688 1.2707850933074951
    endloop
  endfacet
  facet normal 0 0.97752786875107245 -0.21080622812190872
    outer loop
      vertex -60.5 284.90158081054688 1.2707850933074951
      vertex -60.299999237060547 284.76455688476562 0.63539254665374756
      vertex -60.5 284.76455688476562 0.63539254665374756
    endloop
  endfacet
  facet normal 0 0.97751337662017668 -0.21087341825991379
    outer loop
      vertex -60.299999237060547 284.94375610351562 1.4662905931472778
      vertex -60.5 284.90158081054688 1.2707850933074951
      vertex -61.150001525878906 284.90158081054688 1.2707850933074951
    endloop
  endfacet
  facet normal 0 0.97751337662017668 -0.21087341825991376
    outer loop
      vertex -60.299999237060547 284.94375610351562 1.4662905931472778
      vertex -61.150001525878906 284.90158081054688 1.2707850933074951
      vertex -61.049999237060547 284.94375610351562 1.4662905931472778
    endloop
  endfacet
  facet normal 0 0.97751337662017668 -0.21087341825991379
    outer loop
      vertex -61.049999237060547 284.94375610351562 1.4662905931472778
      vertex -61.150001525878906 284.90158081054688 1.2707850933074951
      vertex -61.799999237060547 284.90158081054688 1.2707850933074951
    endloop
  endfacet
  facet normal 0 0.97751337662017668 -0.21087341825991379
    outer loop
      vertex -61.049999237060547 284.94375610351562 1.4662905931472778
      vertex -61.799999237060547 284.90158081054688 1.2707850933074951
      vertex -61.799999237060547 284.94375610351562 1.4662905931472778
    endloop
  endfacet
  facet normal 0 0.97752786875107245 -0.21080622812190872
    outer loop
      vertex -60.299999237060547 284.62753295898438 0
      vertex -60.5 284.62753295898438 0
      vertex -60.5 284.76455688476562 0.63539254665374756
    endloop
  endfacet
  facet normal -1 0 0
    outer loop
      vertex -61.799999237060547 284.30508422851562 1.3994264602661133
      vertex -61.799999237060547 284.62603759765625 1.5348044633865356
      vertex -61.799999237060547 284.60333251953125 1.3351057767868042
    endloop
  endfacet
  facet normal -1 0 -0
    outer loop
      vertex -61.799999237060547 284.90158081054688 1.2707850933074951
      vertex -61.799999237060547 284.60333251953125 1.3351057767868042
      vertex -61.799999237060547 284.94375610351562 1.4662905931472778
    endloop
  endfacet
  facet normal -1 -0 0
    outer loop
      vertex -61.799999237060547 284.62603759765625 1.5348044633865356
      vertex -61.799999237060547 284.94375610351562 1.4662905931472778
      vertex -61.799999237060547 284.60333251953125 1.3351057767868042
    endloop
  endfacet
  facet normal -1 -0 0
    outer loop
      vertex -61.799999237060547 284.30508422851562 1.3994264602661133
      vertex -61.799999237060547 284.308349609375 1.6033183336257935
      vertex -61.799999237060547 284.62603759765625 1.5348044633865356
    endloop
  endfacet
  facet normal -1 -0 -0
    outer loop
      vertex -61.799999237060547 283.97454833984375 1.3391772508621216
      vertex -61.799999237060547 283.60812377929688 1.4756860733032227
      vertex -61.799999237060547 283.958251953125 1.5395022630691528
    endloop
  endfacet
  facet normal -1 0 -0
    outer loop
      vertex -61.799999237060547 284.30508422851562 1.3994264602661133
      vertex -61.799999237060547 283.97454833984375 1.3391772508621216
      vertex -61.799999237060547 283.958251953125 1.5395022630691528
    endloop
  endfacet
  facet normal -1 0 -0
    outer loop
      vertex -61.799999237060547 283.64398193359375 1.2789279222488403
      vertex -61.799999237060547 283.60812377929688 1.4756860733032227
      vertex -61.799999237060547 283.97454833984375 1.3391772508621216
    endloop
  endfacet
  facet normal -1 0 -0
    outer loop
      vertex -61.799999237060547 284.308349609375 1.6033183336257935
      vertex -61.799999237060547 284.30508422851562 1.3994264602661133
      vertex -61.799999237060547 283.958251953125 1.5395022630691528
    endloop
  endfacet
endsolid OBJECT
